<svg width="396" height="264" viewBox="0 0 396 264" xmlns="http://www.w3.org/2000/svg" xmlns:xlink="http://www.w3.org/1999/xlink"><title>poo</title><defs><path id="a" d="M117.333 233.917C52.946 233.917.75 181.72.75 117.333.75 52.946 52.946.75 117.333.75s116.584 52.196 116.584 116.583c0 64.388-52.197 116.584-116.584 116.584z"/><path id="c" d="M117.333 234.667c64.802 0 117.334-52.532 117.334-117.334C234.667 52.533 182.135 0 117.333 0 52.533 0 0 52.532 0 117.333c0 64.802 52.532 117.334 117.333 117.334z"/><path id="e" d="M62.333 123.933c34.02 0 61.6-27.58 61.6-61.6s-27.58-61.6-61.6-61.6-61.6 27.58-61.6 61.6 27.58 61.6 61.6 61.6z"/><path id="g" d="M62.333 123.933c34.02 0 61.6-27.58 61.6-61.6s-27.58-61.6-61.6-61.6-61.6 27.58-61.6 61.6 27.58 61.6 61.6 61.6z"/><path id="i" d="M38.378 77.006C17.192 77.006.018 59.83.018 38.644.017 17.458 17.19.284 38.377.284s38.36 17.174 38.36 38.36c0 21.187-17.174 38.362-38.36 38.362z"/><path id="k" d="M39.378 78.756c21.6 0 39.11-17.51 39.11-39.112 0-21.6-17.51-39.11-39.11-39.11-21.6 0-39.11 17.51-39.11 39.11 0 21.6 17.51 39.112 39.11 39.112z"/><path id="m" d="M24.378 47.11c12.96 0 23.466-10.505 23.466-23.466 0-12.96-10.506-23.466-23.466-23.466S.91 10.684.91 23.644 11.42 47.11 24.38 47.11z"/><path id="o" d="M24.378 47.11c12.96 0 23.466-10.505 23.466-23.466 0-12.96-10.506-23.466-23.466-23.466S.91 10.684.91 23.644 11.42 47.11 24.38 47.11z"/><path id="q" d="M10.578 20.933c5.67 0 10.266-4.596 10.266-10.266S16.248.4 10.578.4.31 4.996.31 10.667c0 5.67 4.598 10.266 10.268 10.266z"/><path id="s" d="M10.578 20.933c5.67 0 10.266-4.596 10.266-10.266S16.248.4 10.578.4.31 4.996.31 10.667c0 5.67 4.598 10.266 10.268 10.266z"/><path id="u" d="M14.807 3.34a9.813 9.813 0 0 1-7.23 3.166A9.813 9.813 0 0 1 .34 3.33c.552-1.047 1.545-1.872 2.677-2.1 0 0 1.42-.438 4.554-.543 3.135.105 4.554.543 4.554.543 1.136.228 2.132 1.06 2.683 2.11z"/><path id="w" d="M10.578 20.506c5.434 0 9.84-4.405 9.84-9.84 0-5.433-4.406-9.838-9.84-9.838s-9.84 4.405-9.84 9.84c0 5.433 4.406 9.838 9.84 9.838z"/><path id="y" d="M4.57 9.683c3.103 0 3.62-2.035 3.62-4.65C8.19 2.414 6.655.96 4.57.96 2.597.96.95 2.416.95 5.033c0 2.616.518 4.65 3.62 4.65z"/><path id="A" d="M10.578 20.506c5.434 0 9.84-4.405 9.84-9.84 0-5.433-4.406-9.838-9.84-9.838s-9.84 4.405-9.84 9.84c0 5.433 4.406 9.838 9.84 9.838z"/><path id="C" d="M8.622 15.933a7.822 7.822 0 1 0 0-15.644 7.822 7.822 0 0 0 0 15.643z"/><path id="E" d="M8.622 15.933a7.822 7.822 0 1 0 0-15.644 7.822 7.822 0 0 0 0 15.643z"/><path id="G" d="M11.13 2.196a7.476 7.476 0 0 1-5.508 2.41A7.476 7.476 0 0 1 .108 2.19c.42-.8 1.177-1.43 2.04-1.602 0 0 1.08-.334 3.47-.414 2.387.08 3.468.414 3.468.414.866.174 1.624.806 2.044 1.608z"/><path id="I" d="M7.622 15.607a7.496 7.496 0 1 0 0-14.992 7.496 7.496 0 0 0 0 14.992z"/><path id="K" d="M3.617 7.171c2.364.002 2.758-1.55 2.758-3.543s-1.17-3.1-2.758-3.1C2.112.526.86 1.633.86 3.626c0 1.994.393 3.545 2.757 3.545z"/><path id="M" d="M7.622 15.607a7.496 7.496 0 1 0 0-14.992 7.496 7.496 0 0 0 0 14.992z"/><path id="O" d="M.8 9.644c0-4.86 3.94-8.8 8.805-8.8H29.15c4.863 0 8.806 3.95 8.806 8.8 0 4.86-3.942 8.8-8.806 8.8H9.605c-4.863 0-8.805-3.95-8.805-8.8z"/><path d="M4.643 5.994c0 .615-.22 1.098-.66 1.448-.44.35-1.053.524-1.84.524-.293 0-.606-.042-.938-.126-.332-.085-.576-.18-.732-.284v-1.27c.205.193.475.356.81.49.336.133.665.2.987.2.36 0 .64-.075.832-.223.194-.148.29-.364.29-.647 0-.244-.095-.467-.287-.67-.192-.2-.557-.445-1.094-.73-.526-.278-.92-.575-1.176-.892a1.74 1.74 0 0 1-.386-1.13c0-.375.098-.71.293-1.01.197-.297.477-.53.84-.697A2.935 2.935 0 0 1 2.82.725c.304 0 .602.03.895.088.293.06.5.12.625.18v1.222a2.096 2.096 0 0 0-.686-.364 2.616 2.616 0 0 0-.823-.134c-.347 0-.625.082-.83.245a.77.77 0 0 0-.31.635c0 .183.033.34.1.47a1.2 1.2 0 0 0 .324.37c.146.118.41.277.795.48.618.32 1.06.644 1.33.968.268.324.403.694.403 1.11zm5.698 1.85L9.7 6.077H6.9l-.612 1.767h-1.27L7.67.842h1.29l2.66 7.002h-1.28zM8.31 2.112h-.03L7.22 5.095h2.15L8.31 2.112zm4.19 5.732V.842h1.16v6l2.74.002v1h-3.9zm4.838 0V.842h3.79v1.002H18.5v1.972h2.442v.996H18.5v2.03l2.788.002v1h-3.95zm8.945-1.85c0 .615-.22 1.098-.66 1.448-.438.35-1.052.524-1.84.524-.293 0-.605-.042-.937-.126-.332-.085-.576-.18-.733-.284v-1.27c.206.193.476.356.81.49.336.133.665.2.987.2.362 0 .64-.075.833-.223.194-.148.29-.364.29-.647 0-.244-.096-.467-.288-.67-.192-.2-.556-.445-1.093-.73-.528-.278-.92-.575-1.177-.892a1.74 1.74 0 0 1-.386-1.13c0-.375.097-.71.292-1.01.195-.297.475-.53.84-.697a2.935 2.935 0 0 1 1.24-.252c.303 0 .6.03.894.088.293.06.5.12.625.18v1.222a2.098 2.098 0 0 0-.685-.364 2.616 2.616 0 0 0-.823-.134c-.348 0-.626.082-.833.245a.77.77 0 0 0-.31.635c0 .183.034.34.102.47a1.2 1.2 0 0 0 .322.37c.147.118.412.277.796.48.62.32 1.062.644 1.33.968.27.324.403.694.403 1.11z" id="Q"/><path id="S" d="M.178 9.333c0-4.86 3.937-8.8 8.793-8.8h60.726c4.856 0 8.793 3.95 8.793 8.8 0 4.86-3.938 8.8-8.794 8.8H8.97c-4.855 0-8.792-3.95-8.792-8.8z"/><path d="M6.206 3.9c0 .713-.155 1.34-.466 1.885-.31.543-.756.963-1.335 1.26-.58.296-1.247.444-2.002.444H.293V.486h2.163c1.25 0 2.188.29 2.813.87.624.58.936 1.427.936 2.543zm-1.23.02c0-.785-.223-1.386-.67-1.805-.445-.418-1.077-.627-1.894-.627h-.957v5h.938c.817 0 1.452-.227 1.904-.68.453-.455.68-1.084.68-1.888zm2.48 3.57V.486h3.79v1H8.617v1.974h2.442v.997H8.618v2.03h2.79V7.49H7.455zm8.946-1.852c0 .615-.22 1.098-.66 1.448-.44.35-1.053.525-1.84.525-.293 0-.606-.04-.938-.126-.332-.085-.576-.18-.732-.283V5.93c.205.193.475.356.81.49.336.133.664.2.987.2.36 0 .638-.074.83-.222.195-.148.292-.364.292-.647 0-.244-.096-.466-.288-.668-.193-.202-.557-.446-1.094-.733-.527-.277-.92-.574-1.177-.892a1.74 1.74 0 0 1-.386-1.13c0-.375.098-.71.293-1.008.196-.298.476-.53.84-.7a2.937 2.937 0 0 1 1.24-.25c.303 0 .6.03.894.088.293.058.5.118.625.18v1.22a2.1 2.1 0 0 0-.687-.363 2.615 2.615 0 0 0-.823-.134c-.348 0-.626.082-.832.245a.77.77 0 0 0-.31.635c0 .182.034.338.102.47a1.2 1.2 0 0 0 .322.37c.147.117.412.276.796.478.62.323 1.062.646 1.33.97.27.323.404.694.404 1.11zm1.225 1.85v-7h1.162v7h-1.163zm8.34-.478c-.687.4-1.5.6-2.436.6-.69 0-1.3-.144-1.833-.434A2.984 2.984 0 0 1 20.47 5.94c-.287-.533-.43-1.15-.43-1.85 0-.716.16-1.358.478-1.926.32-.568.765-1.01 1.338-1.323.573-.313 1.217-.47 1.933-.47.36 0 .727.034 1.098.102.37.07.66.152.87.25v1.196a3.052 3.052 0 0 0-.865-.384 4.18 4.18 0 0 0-1.172-.153c-.46 0-.88.11-1.256.33-.376.22-.67.53-.88.93-.21.4-.314.86-.314 1.377 0 .807.208 1.44.625 1.897.416.458.99.686 1.724.686.44 0 .835-.088 1.18-.263V4.68h-1.45v-1h2.617v3.33zm6.074.48L28.65 2.01h-.034v5.48H27.47V.486h1.47l3.33 5.46h.02V.486h1.143V7.49H32.04zM39.9 1.487v6h-1.172v-6H36.72v-1h5.19v1h-2.012zm2.998 6v-7h3.79v1h-2.628V3.46h2.44v.997h-2.44v2.03h2.788V7.49h-3.95zm9.746 0l-.64-1.767H49.2l-.61 1.77h-1.27L49.97.486h1.29l2.66 7.002h-1.278zm-2.03-5.732h-.03L49.52 4.74h2.148l-1.06-2.984zM61.23 7.49V1.96l-.02.002-2.262 5.527h-.756l-2.286-5.494h-.03V7.49H54.8V.486h1.66l2.12 5.264h.03L60.79.488h1.593V7.49H61.23z" id="U"/><path id="W" d="M97.422 194.56C43.835 194.56.394 151.12.394 97.534S43.834.506 97.422.506c53.587 0 97.028 43.44 97.028 97.027s-43.44 97.028-97.028 97.028z"/><path id="Y" d="M98.422 196.31c54 0 97.778-43.775 97.778-97.777 0-54-43.777-97.777-97.778-97.777-54 0-97.778 43.776-97.778 97.777 0 54.002 43.777 97.778 97.778 97.778z"/><path id="aa" d="M53.422 106.333c29.16 0 52.8-23.64 52.8-52.8 0-29.16-23.64-52.8-52.8-52.8-29.16 0-52.8 23.64-52.8 52.8 0 29.16 23.64 52.8 52.8 52.8z"/><path id="ac" d="M53.422 106.333c29.16 0 52.8-23.64 52.8-52.8 0-29.16-23.64-52.8-52.8-52.8-29.16 0-52.8 23.64-52.8 52.8 0 29.16 23.64 52.8 52.8 52.8z"/><path id="ae" d="M23.378 45.622c12.42 0 22.49-10.068 22.49-22.49 0-12.42-10.07-22.488-22.49-22.488-12.42 0-22.49 10.07-22.49 22.49 0 12.42 10.07 22.488 22.49 22.488z"/><path id="ag" d="M23.378 45.622c12.42 0 22.49-10.068 22.49-22.49 0-12.42-10.07-22.488-22.49-22.488-12.42 0-22.49 10.07-22.49 22.49 0 12.42 10.07 22.488 22.49 22.488z"/><path id="ai" d="M32.212 6.754a21.494 21.494 0 0 1-15.834 6.93A21.495 21.495 0 0 1 .523 6.733c1.21-2.295 3.384-4.104 5.865-4.604 0 0 3.11-.958 9.974-1.188 6.865.23 9.973 1.188 9.973 1.188 2.49.5 4.67 2.32 5.877 4.626z"/><path id="ak" d="M22.378 43.685c11.903 0 21.552-9.65 21.552-21.552S34.28.58 22.378.58C10.475.583.826 10.23.826 22.134s9.65 21.552 21.552 21.552z"/><path id="am" d="M8.362 19.932c6.797 0 7.93-4.458 7.93-10.19 0-5.732-3.365-8.916-7.93-8.916C4.036.826.432 4.01.432 9.742s1.133 10.19 7.93 10.19z"/><path id="ao" d="M22.378 43.685c11.903 0 21.552-9.65 21.552-21.552S34.28.58 22.378.58C10.475.583.826 10.23.826 22.134s9.65 21.552 21.552 21.552z"/><path id="aq" d="M11.644 23.422c6.21 0 11.245-5.034 11.245-11.244S17.854.933 11.643.933C5.434.933.4 5.968.4 12.178c0 6.21 5.034 11.244 11.244 11.244z"/><path id="as" d="M11.644 23.422c6.21 0 11.245-5.034 11.245-11.244S17.854.933 11.643.933C5.434.933.4 5.968.4 12.178c0 6.21 5.034 11.244 11.244 11.244z"/><path id="au" d="M16.562 3.488a10.747 10.747 0 0 1-7.918 3.466c-3.135 0-5.958-1.34-7.927-3.477C1.322 2.33 2.41 1.425 3.65 1.175c0 0 1.554-.48 4.986-.594 3.433.116 4.987.595 4.987.595 1.245.25 2.335 1.16 2.94 2.313z"/><path id="aw" d="M11.644 21.954c5.952 0 10.776-4.825 10.776-10.776C22.42 5.226 17.596.402 11.644.402 5.694.402.868 5.226.868 11.178c0 5.95 4.825 10.776 10.776 10.776z"/><path id="ay" d="M4.636 9.577c3.4 0 3.965-2.23 3.965-5.095C8.6 1.616 6.92.024 4.638.024 2.474.024.67 1.616.67 4.482s.566 5.095 3.964 5.095z"/><path id="aA" d="M11.644 21.954c5.952 0 10.776-4.825 10.776-10.776C22.42 5.226 17.596.402 11.644.402 5.694.402.868 5.226.868 11.178c0 5.95 4.825 10.776 10.776 10.776z"/><path id="aC" d="M12.11 22.933c6.21 0 11.246-5.034 11.246-11.244S18.32.443 12.11.443C5.9.444.868 5.48.868 11.69c0 6.21 5.034 11.243 11.244 11.243z"/><path id="aE" d="M12.11 22.933c6.21 0 11.246-5.034 11.246-11.244S18.32.443 12.11.443C5.9.444.868 5.48.868 11.69c0 6.21 5.034 11.243 11.244 11.243z"/><path id="aG" d="M16.028 3A10.747 10.747 0 0 1 8.11 6.464c-3.134 0-5.957-1.34-7.926-3.477C.788 1.84 1.876.936 3.116.686c0 0 1.555-.48 4.987-.594 3.433.115 4.987.594 4.987.594 1.245.25 2.335 1.16 2.938 2.313z"/><path id="aI" d="M11.11 22.465c5.953 0 10.777-4.825 10.777-10.776C21.887 5.737 17.062.912 11.11.912 5.16.913.336 5.737.336 11.69c0 5.95 4.825 10.775 10.776 10.775z"/><path id="aK" d="M4.103 10.088c3.4 0 3.965-2.23 3.965-5.095 0-2.866-1.682-4.458-3.965-4.458C1.94.535.138 2.127.138 4.993s.567 5.095 3.965 5.095z"/><path id="aM" d="M11.11 22.465c5.953 0 10.777-4.825 10.777-10.776C21.887 5.737 17.062.912 11.11.912 5.16.913.336 5.737.336 11.69c0 5.95 4.825 10.775 10.776 10.775z"/><path id="aO" d="M19.89 40.022c10.8 0 19.554-8.755 19.554-19.555C39.444 9.667 30.69.91 19.89.91 9.09.91.332 9.667.332 20.468c0 10.8 8.756 19.555 19.556 19.555z"/><path id="aQ" d="M19.89 40.022c10.8 0 19.554-8.755 19.554-19.555C39.444 9.667 30.69.91 19.89.91 9.09.91.332 9.667.332 20.468c0 10.8 8.756 19.555 19.556 19.555z"/><path id="aS" d="M27.658 5.18a18.69 18.69 0 0 1-13.77 6.027A18.69 18.69 0 0 1 .103 5.16c1.052-1.995 2.943-3.568 5.1-4.002 0 0 2.703-.834 8.673-1.033 5.97.2 8.673 1.033 8.673 1.033 2.164.436 4.06 2.017 5.11 4.022z"/><path id="aU" d="M18.89 38.207c10.35 0 18.74-8.39 18.74-18.74 0-10.35-8.39-18.74-18.74-18.74C8.54.726.147 9.116.147 19.466c0 10.35 8.39 18.74 18.74 18.74z"/><path id="aW" d="M7.875 17.118c5.91 0 6.896-3.877 6.896-8.86 0-4.985-2.926-7.754-6.895-7.754C4.113.504.98 3.274.98 8.257c0 4.984.985 8.86 6.895 8.86z"/><path id="aY" d="M18.89 38.207c10.35 0 18.74-8.39 18.74-18.74 0-10.35-8.39-18.74-18.74-18.74C8.54.726.147 9.116.147 19.466c0 10.35 8.39 18.74 18.74 18.74z"/><path id="ba" d="M7.268 1.736A2 2 0 0 1 9.716.317l31.088 8.33a2.004 2.004 0 0 1 1.41 2.454l-7.06 26.35a2 2 0 0 1-2.45 1.42L1.618 30.54a2.004 2.004 0 0 1-1.41-2.454l7.06-26.35z"/><path id="bc" d="M7.268 1.736A2 2 0 0 1 9.716.317l31.088 8.33a2.004 2.004 0 0 1 1.41 2.454l-7.06 26.35a2 2 0 0 1-2.45 1.42L1.618 30.54a2.004 2.004 0 0 1-1.41-2.454l7.06-26.35z"/><path id="be" d="M.347.792A.786.786 0 0 1 1.304.24l22.8 6.108a.78.78 0 0 1 .553.958.786.786 0 0 1-.957.554L.9 1.75A.78.78 0 0 1 .346.792z"/><path id="bg" d="M.74 1.06a.78.78 0 0 1 .964-.552l15.19 4.07a.783.783 0 0 1-.405 1.51L1.3 2.02a.783.783 0 0 1-.56-.96z"/><path id="bi" d="M5.86.393l29.28 7.845-5.062 18.89L.8 19.28 5.86.392z"/><path id="bk" d="M29.224 17.898L.8 10.282l1.485-5.544C4.97 2.715 8.962-.048 10.305.312c2.092.56 3.327 9.77 7.072 10.774 3.744 1.003 5.294-2.03 8.044-1.293 2.043.547 3.295 5.56 3.804 8.105z"/><path id="bm" d="M2.863 7.337c1.9.508 3.87-.69 4.402-2.677C7.798 2.673 6.69.65 4.792.14 2.892-.367.922.83.39 2.818c-.533 1.987.575 4.01 2.473 4.52z"/><path id="bo" d="M22.577 14.774c-1.627 6.07-7.865 9.672-13.935 8.045C2.572 21.192-1.03 14.953.597 8.883 2.223 2.814 8.462-.786 14.53.84l-2.756 10.29a.72.72 0 0 0 .513.887l10.29 2.757z"/><path id="bq" d="M11.2 14.39C12.546 8.575 9.153 2.7 3.445.955c-.358.352-.63.8-.77 1.32L.49 10.43a1.456 1.456 0 0 0 1.03 1.783l8.152 2.186c.52.14 1.045.128 1.53-.006z"/><path id="bs" d="M11.2 14.39C12.546 8.575 9.153 2.7 3.445.955c-.358.352-.63.8-.77 1.32L.49 10.43a1.456 1.456 0 0 0 1.03 1.783l8.152 2.186c.52.14 1.045.128 1.53-.006z"/><path id="bu" d="M11.756 22.51C17.966 22.51 23 17.478 23 11.268S17.966.022 11.756.022.51 5.056.51 11.267c0 6.21 5.035 11.244 11.246 11.244z"/><path id="bw" d="M11.756 22.51C17.966 22.51 23 17.478 23 11.268S17.966.022 11.756.022.51 5.056.51 11.267c0 6.21 5.035 11.244 11.246 11.244z"/><path id="by" d="M16.673 3.577a10.747 10.747 0 0 1-7.917 3.466c-3.136 0-5.96-1.34-7.928-3.477.605-1.148 1.692-2.052 2.933-2.302 0 0 1.555-.48 4.988-.594 3.432.115 4.986.594 4.986.594 1.245.25 2.335 1.16 2.94 2.313z"/><path id="bA" d="M11.756 22.043c5.95 0 10.776-4.825 10.776-10.776C22.532 5.315 17.707.49 11.756.49 5.804.49.98 5.316.98 11.268c0 5.95 4.824 10.776 10.776 10.776z"/><path id="bC" d="M4.748 9.666c3.398 0 3.965-2.23 3.965-5.095C8.713 1.706 7.03.114 4.748.114 2.585.113.783 1.705.783 4.57c0 2.867.566 5.096 3.965 5.096z"/><path id="bE" d="M11.756 22.043c5.95 0 10.776-4.825 10.776-10.776C22.532 5.315 17.707.49 11.756.49 5.804.49.98 5.316.98 11.268c0 5.95 4.824 10.776 10.776 10.776z"/><path id="bG" d="M.422 9.533c0-4.86 3.938-8.8 8.796-8.8h71.386c4.858 0 8.796 3.95 8.796 8.8 0 4.86-3.938 8.8-8.796 8.8H9.22c-4.858 0-8.796-3.95-8.796-8.8z"/><path d="M5.137 5.883c0 .615-.22 1.098-.66 1.447-.44.35-1.053.525-1.84.525-.293 0-.606-.042-.938-.127-.333-.084-.577-.18-.733-.283v-1.27c.205.193.475.356.81.49.335.133.664.2.987.2.36 0 .638-.075.832-.223.194-.148.29-.364.29-.647 0-.244-.095-.467-.288-.67-.192-.2-.556-.445-1.093-.73-.528-.278-.92-.575-1.177-.892a1.74 1.74 0 0 1-.386-1.13c0-.375.098-.71.293-1.01.196-.297.475-.53.84-.697a2.935 2.935 0 0 1 1.24-.252c.303 0 .6.03.894.088.292.06.5.12.624.18v1.22a2.096 2.096 0 0 0-.686-.362 2.616 2.616 0 0 0-.823-.135c-.348 0-.626.082-.833.244a.77.77 0 0 0-.31.634c0 .183.035.34.103.47a1.2 1.2 0 0 0 .322.37c.147.117.412.277.796.48.62.32 1.062.644 1.33.968.27.324.404.694.404 1.11zm1.225 1.85V.73h3.79v1.002H7.523v1.973h2.442V4.7H7.524v2.032h2.788v1h-3.95zm9.995-.297c-.237.13-.536.232-.896.307-.358.075-.724.112-1.095.112-.677 0-1.27-.144-1.782-.432a2.878 2.878 0 0 1-1.172-1.225c-.27-.53-.404-1.137-.404-1.824 0-.726.156-1.377.47-1.953a3.3 3.3 0 0 1 1.31-1.335 3.76 3.76 0 0 1 1.867-.47c.293 0 .598.024.913.072.316.05.58.12.79.215v1.182a3.232 3.232 0 0 0-1.67-.44c-.477 0-.904.11-1.28.328a2.21 2.21 0 0 0-.872.93c-.205.402-.308.87-.308 1.404 0 .774.212 1.388.635 1.84.424.453.99.68 1.696.68.686 0 1.287-.165 1.8-.494v1.104zm4.8.297l-.85-2.02c-.227-.548-.548-.822-.96-.822l-.54.002.002 2.84h-1.164v-7h2.26c.734 0 1.302.165 1.705.497.405.332.607.795.607 1.39 0 .486-.136.9-.408 1.24-.273.34-.65.57-1.13.695v.02c.142.048.29.158.44.33.152.17.268.35.35.538l1.07 2.29h-1.383zm-.16-5c0-.325-.11-.578-.33-.76-.22-.18-.53-.27-.93-.27h-.928l-.002 2.212h.91c.373 0 .68-.11.92-.33.238-.22.358-.503.358-.852zm2.61 5V.73h3.79v1.002H24.77v1.973h2.442V4.7H24.77v2.032h2.788v1h-3.95zm7.662-6v6h-1.172v-6H28.09V.73h5.19v1.002h-2.01zm9.955 1.17c0 .444-.11.842-.332 1.195a2.21 2.21 0 0 1-.942.823c-.406.196-.87.294-1.396.294h-.83v2.52h-1.162V.73h2.163c.804 0 1.422.19 1.853.563.432.374.647.91.647 1.61zm-1.22.04c0-.394-.126-.697-.38-.91-.25-.214-.618-.32-1.1-.32h-.8v2.52h.746c.483 0 .86-.11 1.13-.328.27-.218.405-.538.405-.962zm5.85 4.79l-.85-2.02c-.228-.548-.55-.822-.962-.822l-.537.002v2.84h-1.162v-7h2.26c.733 0 1.3.165 1.705.497.402.332.604.795.604 1.39 0 .486-.136.9-.408 1.24-.272.34-.648.57-1.13.695v.02c.143.048.29.158.442.33.15.17.268.35.35.538l1.068 2.29h-1.382zm-.162-5c0-.325-.11-.578-.33-.76-.22-.18-.53-.27-.93-.27h-.927v2.212h.908c.374 0 .68-.11.92-.33.24-.22.36-.503.36-.852zm8.72 1.43c0 .737-.138 1.384-.417 1.942A3.03 3.03 0 0 1 52.8 7.4c-.52.303-1.114.455-1.784.455-.645 0-1.22-.147-1.727-.442a3.013 3.013 0 0 1-1.177-1.247c-.28-.537-.418-1.15-.418-1.84 0-.737.14-1.386.418-1.95a3.03 3.03 0 0 1 1.198-1.303c.522-.306 1.13-.46 1.823-.46.638 0 1.206.148 1.704.44A3 3 0 0 1 54 2.304c.276.54.414 1.16.414 1.86zm-1.23.108c0-.835-.186-1.482-.56-1.94-.37-.457-.885-.685-1.54-.685-.657 0-1.18.24-1.57.72-.392.48-.587 1.102-.587 1.867 0 .515.088.97.266 1.363.177.394.427.697.75.91.322.213.686.32 1.093.32.66 0 1.184-.223 1.57-.67.386-.445.58-1.073.58-1.884h-.002zm4.683.84c0 .574-.088 1.066-.264 1.476-.175.41-.43.724-.76.942a2.05 2.05 0 0 1-1.154.327c-.325 0-.6-.053-.82-.16V6.57c.1.083.224.145.37.19.144.043.283.065.416.065a.86.86 0 0 0 .784-.442c.177-.294.266-.722.266-1.282V.73h1.162v4.38zm1.67 2.623V.73h3.79v1.002h-2.628v1.973h2.44l.002.996h-2.442v2.032h2.788v1h-3.95zm9.995-.297a3.25 3.25 0 0 1-.895.307c-.36.075-.725.112-1.096.112-.678 0-1.272-.144-1.783-.432a2.878 2.878 0 0 1-1.172-1.225c-.27-.53-.405-1.137-.405-1.824 0-.726.156-1.377.468-1.953a3.3 3.3 0 0 1 1.31-1.335 3.76 3.76 0 0 1 1.87-.47c.292 0 .596.024.912.072.316.05.58.12.79.215v1.182a3.23 3.23 0 0 0-1.67-.44c-.477 0-.905.11-1.28.328a2.21 2.21 0 0 0-.872.93c-.205.402-.308.87-.308 1.404 0 .774.212 1.388.635 1.84.423.453.988.68 1.694.68.686 0 1.287-.165 1.8-.494v1.104zm3.732-5.704v6H72.09v-6h-2.007v-1h5.19v1h-2.01z" id="bI"/><path id="bK" d="M.482 8.13a1 1 0 0 1 .712-1.23L26.55.104a1.002 1.002 0 0 1 1.233.71l5.807 21.67a1 1 0 0 1-.712 1.23L7.52 30.512a1.002 1.002 0 0 1-1.23-.708L.48 8.13z"/><path id="bM" d="M.658 6.413a.614.614 0 0 1 .43-.748L18.903.89a.617.617 0 0 1 .747.434.614.614 0 0 1-.432.748L1.405 6.845a.617.617 0 0 1-.747-.432z"/><path id="bO" d="M.132 4.184a.618.618 0 0 1 .437-.75L12.435.254a.62.62 0 0 1 .753.43.618.618 0 0 1-.438.75L.885 4.615a.62.62 0 0 1-.753-.43z"/><path id="bQ" d="M.03 6.78L22.902.65l3.954 14.758-22.874 6.13L.03 6.78z"/><path id="bS" d="M24.19 4.587l-22.207 5.95-1.16-4.33C1.847 3.79 3.47.36 4.52.078c1.634-.44 6.068 5.31 8.993 4.526 2.925-.784 2.79-3.44 4.937-4.017 1.596-.428 4.4 2.474 5.74 3.997z"/><path id="bU" d="M4.15 6.603c1.484-.398 2.35-1.978 1.934-3.53C5.668 1.52 4.128.582 2.644.98 1.162 1.38.297 2.96.713 4.51 1.128 6.065 2.668 7 4.152 6.604z"/><path id="bW" d="M16.795.846a2.498 2.498 0 0 1 3.528-.003l3.39 3.39a2.494 2.494 0 0 1-.004 3.527L9.544 21.924.778 23.777 2.63 15.01 16.796.846z"/><path id="bY" d="M3.793.85a2.5 2.5 0 0 1 3.53-.007l3.39 3.39a2.5 2.5 0 0 1-.006 3.53l-3.542 3.542L.25 4.39 3.794.85z"/><path id="ca" d="M3.793.85a2.5 2.5 0 0 1 3.53-.007l3.39 3.39a2.5 2.5 0 0 1-.006 3.53l-3.542 3.542L.25 4.39 3.794.85z"/><path id="cc" d="M5.886.984a1.212 1.212 0 0 1 1.23 1.228l-.028 2.255 2.255-.026a1.212 1.212 0 0 1 1.23 1.23l-.028 2.254-9.652 2.738L3.63 1.01 5.887.984z"/><path id="ce" d="M1.82.28l3.457 3.456-4.384.926L1.82.28z"/><path id="cg" d="M3.02.62l6.915 6.915L7.28 10.19.366 3.276 3.02.62z"/><path id="ci" d="M10.484 120.71l.61.084.18-.19C4.16 106.917.393 91.69.393 75.917.394 46.538 13.532 19.31 35.77.992c-.03-.083-.06-.165-.088-.247l-.594-.162-.202.168c4.632 12.694 7.03 26.166 7.03 39.968 0 30.044-11.41 58.295-31.55 79.76.038.077.078.155.118.232z"/><path id="ck" d="M11.73 121.183c19.8-21.007 31.937-49.318 31.937-80.465 0-14.224-2.532-27.857-7.168-40.474C14.61 18.176.643 45.416.643 75.918c0 16.334 4.005 31.73 11.086 45.265z"/><path id="cm" d="M5.09 1.775A.98.98 0 0 0 4.11.8a.974.974 0 0 0-.977.975v.956c0 .555-.454 1.003-1.002 1.003h-.955A.98.98 0 0 0 .2 4.71c0 .545.436.98.975.98h.956c.555 0 1.003.453 1.003 1v.957a.98.98 0 0 0 .978.975.974.974 0 0 0 .98-.975V6.69c0-.552.453-1 1-1h.957a.98.98 0 0 0 .975-.98.974.974 0 0 0-.975-.977H6.09a1.006 1.006 0 0 1-1-1.002v-.955z"/><path id="co" d="M.27 3.3A1.955 1.955 0 1 0 4.05 2.29 1.955 1.955 0 0 0 .27 3.3z"/><path id="cq" d="M.85 2.918a1.956 1.956 0 1 0 3.78-1.012A1.956 1.956 0 0 0 .85 2.918z"/><path id="cs" d="M.74 2.896a1.956 1.956 0 1 0 3.778-1.012A1.956 1.956 0 0 0 .74 2.896z"/><path id="cu" d="M.435 2a.978.978 0 1 0 1.89-.505A.978.978 0 0 0 .434 2z"/><path id="cw" d="M.685 1.604a.978.978 0 1 0 1.89-.506.978.978 0 0 0-1.89.506z"/><path id="cy" d="M.968 1.616a.978.978 0 1 0 1.888-.506.978.978 0 0 0-1.888.506z"/><path id="cA" d="M.3 2.038a.978.978 0 1 0 1.89-.506.978.978 0 0 0-1.89.506z"/><path id="cC" d="M.056 1.238a.978.978 0 1 0 1.89-.506.978.978 0 0 0-1.89.506z"/><path id="cE" d="M2.444 4a1.956 1.956 0 1 0 0-3.91 1.956 1.956 0 0 0 0 3.91z"/><path id="cG" d="M2.667 4.556a1.956 1.956 0 1 0 0-3.91 1.956 1.956 0 0 0 0 3.91z"/><path id="cI" d="M1.822 2.89a.978.978 0 1 0 0-1.957.978.978 0 0 0 0 1.956z"/><path id="cK" d="M1.156 2.09a.978.978 0 1 0 0-1.957.978.978 0 0 0 0 1.956z"/><path id="cM" d="M1.667 2.022a.978.978 0 1 0 0-1.955.978.978 0 0 0 0 1.955z"/><path id="cO" d="M1.733 2.91a.978.978 0 1 0 0-1.955.978.978 0 0 0 0 1.956z"/></defs><g fill="none" fill-rule="evenodd"><mask id="b" fill="#fff"><use xlink:href="#a"/></mask><path d="M117.333 234.667c64.802 0 117.334-52.532 117.334-117.334C234.667 52.533 182.135 0 117.333 0 52.533 0 0 52.532 0 117.333c0 64.802 52.532 117.334 117.333 117.334z" fill="#FAFDFF" mask="url(#b)"/><mask id="d" fill="#fff"><use xlink:href="#c"/></mask><path d="M117.333 234.667c64.802 0 117.334-52.532 117.334-117.334C234.667 52.533 182.135 0 117.333 0 52.533 0 0 52.532 0 117.333c0 64.802 52.532 117.334 117.333 117.334z" stroke="#A4CFF5" stroke-width="3" stroke-linecap="round" stroke-linejoin="round" mask="url(#d)"/><g transform="translate(55 55)"><mask id="f" fill="#fff"><use xlink:href="#e"/></mask><path d="M62.333 123.933c34.02 0 61.6-27.58 61.6-61.6s-27.58-61.6-61.6-61.6-61.6 27.58-61.6 61.6 27.58 61.6 61.6 61.6z" fill="#F3F9FF" mask="url(#f)"/></g><g transform="translate(55 55)"><mask id="h" fill="#fff"><use xlink:href="#g"/></mask><path d="M62.333 123.933c34.02 0 61.6-27.58 61.6-61.6s-27.58-61.6-61.6-61.6-61.6 27.58-61.6 61.6 27.58 61.6 61.6 61.6z" stroke-opacity=".4" stroke="#6DB0EA" stroke-width="2" stroke-linecap="round" stroke-linejoin="round" mask="url(#h)"/></g><g transform="translate(297 21)"><mask id="j" fill="#fff"><use xlink:href="#i"/></mask><path d="M38.378 77.756c21.6 0 39.11-17.51 39.11-39.112 0-21.6-17.51-39.11-39.11-39.11-21.6 0-39.11 17.51-39.11 39.11 0 21.6 17.51 39.112 39.11 39.112z" fill="#FDFDFF" mask="url(#j)"/></g><g transform="translate(296 20)"><mask id="l" fill="#fff"><use xlink:href="#k"/></mask><path d="M39.378 78.756c21.6 0 39.11-17.51 39.11-39.112 0-21.6-17.51-39.11-39.11-39.11-21.6 0-39.11 17.51-39.11 39.11 0 21.6 17.51 39.112 39.11 39.112z" stroke="#B6ABDE" stroke-width="3" stroke-linecap="round" stroke-linejoin="round" mask="url(#l)"/></g><g transform="translate(311 36)"><mask id="n" fill="#fff"><use xlink:href="#m"/></mask><path d="M24.378 47.11c12.96 0 23.466-10.505 23.466-23.466 0-12.96-10.506-23.466-23.466-23.466S.91 10.684.91 23.644 11.42 47.11 24.38 47.11z" fill-opacity=".4" fill="#F5F2FF" mask="url(#n)"/></g><g transform="translate(311 36)"><mask id="p" fill="#fff"><use xlink:href="#o"/></mask><path d="M24.378 47.11c12.96 0 23.466-10.505 23.466-23.466 0-12.96-10.506-23.466-23.466-23.466S.91 10.684.91 23.644 11.418 47.11 24.38 47.11z" stroke="#9284C5" stroke-width="2" stroke-linecap="round" stroke-linejoin="round" mask="url(#p)"/></g><g transform="translate(294 26)"><mask id="r" fill="#fff"><use xlink:href="#q"/></mask><path d="M10.578 20.933c5.67 0 10.266-4.596 10.266-10.266S16.248.4 10.578.4.31 4.996.31 10.667c0 5.67 4.598 10.266 10.268 10.266z" fill="#F9F8FF" mask="url(#r)"/></g><g transform="translate(294 26)"><mask id="t" fill="#fff"><use xlink:href="#s"/></mask><path d="M10.578 20.933c5.67 0 10.266-4.596 10.266-10.266S16.248.4 10.578.4.31 4.997.31 10.667c0 5.67 4.598 10.266 10.268 10.266z" stroke-opacity=".4" stroke="#9284C5" stroke-width="2" stroke-linecap="round" stroke-linejoin="round" mask="url(#t)"/></g><g transform="translate(297 40)"><mask id="v" fill="#fff"><use xlink:href="#u"/></mask><path d="M-5.122-4.313h25.385V15.43H-5.122V-4.314z" fill="#E1DBF6" mask="url(#v)"/></g><g transform="translate(294 26)"><mask id="x" fill="#fff"><use xlink:href="#w"/></mask><path d="M15.124 15.23c1.734.35 3.14 2.098 3.14 3.9v1.022s-5.15 4.277-7.686 4.277c-2.592 0-7.7-4.278-7.7-4.278v-1.02c0-1.804 1.405-3.553 3.14-3.902 0 0 1.418-.438 4.553-.543 3.135.105 4.554.543 4.554.543z" stroke-opacity=".4" stroke="#A192D7" stroke-linecap="round" stroke-linejoin="round" mask="url(#x)"/></g><g transform="translate(300 31)"><mask id="z" fill="#fff"><use xlink:href="#y"/></mask><path d="M-4.05-4.04h17.24v18.723H-4.05V-4.04z" fill="#FFF" mask="url(#z)"/></g><g transform="translate(294 26)"><mask id="B" fill="#fff"><use xlink:href="#A"/></mask><path d="M10.57 14.683c3.103 0 3.62-2.035 3.62-4.65 0-2.618-1.536-4.072-3.62-4.072-1.974 0-3.62 1.455-3.62 4.072 0 2.616.518 4.65 3.62 4.65z" stroke-opacity=".4" stroke="#A192D7" stroke-linecap="round" stroke-linejoin="round" mask="url(#B)"/></g><g transform="translate(360 31)"><mask id="D" fill="#fff"><use xlink:href="#C"/></mask><path d="M8.622 15.933a7.822 7.822 0 1 0 0-15.644 7.822 7.822 0 0 0 0 15.643z" fill="#F9F8FF" mask="url(#D)"/></g><g transform="translate(360 31)"><mask id="F" fill="#fff"><use xlink:href="#E"/></mask><path d="M8.622 15.933a7.822 7.822 0 1 0 0-15.644 7.822 7.822 0 0 0 0 15.643z" stroke-opacity=".4" stroke="#9284C5" stroke-width="2" stroke-linecap="round" stroke-linejoin="round" mask="url(#F)"/></g><g transform="translate(363 42)"><mask id="H" fill="#fff"><use xlink:href="#G"/></mask><path d="M-5.244-4.826h21.722v17.423H-5.244V-4.826z" fill="#E1DBF6" mask="url(#H)"/></g><g transform="translate(361 31)"><mask id="J" fill="#fff"><use xlink:href="#I"/></mask><path d="M11.086 11.588c1.32.265 2.392 1.598 2.392 2.972v.778s-3.923 3.26-5.856 3.26c-1.974 0-5.866-3.26-5.866-3.26v-.778c0-1.374 1.07-2.707 2.392-2.972 0 0 1.08-.334 3.47-.414 2.387.08 3.468.414 3.468.414z" stroke-opacity=".4" stroke="#A192D7" stroke-linecap="round" stroke-linejoin="round" mask="url(#J)"/></g><g transform="translate(365 35)"><mask id="L" fill="#fff"><use xlink:href="#K"/></mask><path d="M-4.141-4.474h15.515v16.646H-4.142V-4.475z" fill="#FFF" mask="url(#L)"/></g><g transform="translate(361 31)"><mask id="N" fill="#fff"><use xlink:href="#M"/></mask><path d="M7.617 11.17c2.364 0 2.758-1.55 2.758-3.543 0-1.994-1.17-3.1-2.758-3.1-1.505 0-2.758 1.106-2.758 3.1-.002 1.994.393 3.544 2.757 3.544z" stroke-opacity=".4" stroke="#A192D7" stroke-linecap="round" stroke-linejoin="round" mask="url(#N)"/></g><g transform="translate(316 50)"><mask id="P" fill="#fff"><use xlink:href="#O"/></mask><path d="M-4.2-4.156h47.156v27.6H-4.2v-27.6z" fill="#9284C5" mask="url(#P)"/></g><g transform="translate(322 56)"><mask id="R" fill="#fff"><use xlink:href="#Q"/></mask><path d="M-4.552-4.275h35.835v17.241H-4.552v-17.24z" fill="#FFFEFF" mask="url(#R)"/></g><g transform="translate(78 108)"><mask id="T" fill="#fff"><use xlink:href="#S"/></mask><path d="M-4.822-4.467h88.31v27.6H-4.82v-27.6z" fill="#6DB0EA" mask="url(#T)"/></g><g transform="translate(86 114)"><mask id="V" fill="#fff"><use xlink:href="#U"/></mask><path d="M-4.707-4.63h72.09v17.24h-72.09V-4.63z" fill="#FFFEFF" mask="url(#V)"/></g><g transform="translate(192 55)"><mask id="X" fill="#fff"><use xlink:href="#W"/></mask><path d="M97.422 195.31c54 0 97.778-43.775 97.778-97.777 0-54-43.777-97.777-97.778-97.777-54 0-97.778 43.776-97.778 97.777 0 54.002 43.777 97.778 97.778 97.778z" fill="#FDFDFF" mask="url(#X)"/></g><g transform="translate(191 54)"><mask id="Z" fill="#fff"><use xlink:href="#Y"/></mask><path d="M98.422 196.31c54 0 97.778-43.775 97.778-97.777 0-54-43.777-97.777-97.778-97.777-54 0-97.778 43.776-97.778 97.777 0 54.002 43.777 97.778 97.778 97.778z" stroke="#B6ABDE" stroke-width="3" stroke-linecap="round" stroke-linejoin="round" mask="url(#Z)"/></g><g transform="translate(236 99)"><mask id="ab" fill="#fff"><use xlink:href="#aa"/></mask><path d="M53.422 106.333c29.16 0 52.8-23.64 52.8-52.8 0-29.16-23.64-52.8-52.8-52.8-29.16 0-52.8 23.64-52.8 52.8 0 29.16 23.64 52.8 52.8 52.8z" fill-opacity=".4" fill="#F5F2FF" mask="url(#ab)"/></g><g transform="translate(236 99)"><mask id="ad" fill="#fff"><use xlink:href="#ac"/></mask><path d="M53.422 106.333c29.16 0 52.8-23.64 52.8-52.8 0-29.16-23.64-52.8-52.8-52.8-29.16 0-52.8 23.64-52.8 52.8 0 29.16 23.64 52.8 52.8 52.8z" stroke="#9284C5" stroke-width="2" stroke-linecap="round" stroke-linejoin="round" mask="url(#ad)"/></g><g transform="translate(4 15)"><mask id="af" fill="#fff"><use xlink:href="#ae"/></mask><path d="M23.378 45.622c12.42 0 22.49-10.068 22.49-22.49 0-12.42-10.07-22.488-22.49-22.488-12.42 0-22.49 10.07-22.49 22.49 0 12.42 10.07 22.488 22.49 22.488z" fill="#F3F9FF" mask="url(#af)"/></g><g transform="translate(4 15)"><mask id="ah" fill="#fff"><use xlink:href="#ag"/></mask><path d="M23.378 45.622c12.42 0 22.49-10.068 22.49-22.49 0-12.42-10.07-22.488-22.49-22.488-12.42 0-22.49 10.07-22.49 22.49 0 12.42 10.07 22.488 22.49 22.488z" stroke-opacity=".4" stroke="#6EB1EB" stroke-width="2" stroke-linecap="round" stroke-linejoin="round" mask="url(#ah)"/></g><g transform="translate(11 46)"><mask id="aj" fill="#fff"><use xlink:href="#ai"/></mask><path d="M-5.49-4.06h43.703v31.34H-5.49V-4.06z" fill="#CCE7FF" mask="url(#aj)"/></g><g transform="translate(5 16)"><mask id="al" fill="#fff"><use xlink:href="#ak"/></mask><path d="M32.335 32.128c3.8.765 6.878 4.597 6.878 8.546v2.236s-11.278 9.37-16.835 9.37c-5.677 0-16.867-9.37-16.867-9.37v-2.236c0-3.95 3.08-7.78 6.878-8.546 0 0 3.11-.958 9.974-1.188 6.865.23 9.973 1.188 9.973 1.188z" stroke-opacity=".4" stroke="#83C1F6" stroke-linecap="round" stroke-linejoin="round" mask="url(#al)"/></g><g transform="translate(19 27)"><mask id="an" fill="#fff"><use xlink:href="#am"/></mask><path d="M-4.568-4.174h25.86v29.106h-25.86V-4.174z" fill="#FFF" mask="url(#an)"/></g><g transform="translate(5 16)"><mask id="ap" fill="#fff"><use xlink:href="#ao"/></mask><path d="M22.362 30.932c6.797 0 7.93-4.458 7.93-10.19 0-5.732-3.365-8.916-7.93-8.916-4.326 0-7.93 3.184-7.93 8.916s1.133 10.19 7.93 10.19z" stroke-opacity=".4" stroke="#83C1F6" stroke-linecap="round" stroke-linejoin="round" mask="url(#ap)"/></g><g transform="translate(158 2)"><mask id="ar" fill="#fff"><use xlink:href="#aq"/></mask><path d="M11.644 23.422c6.21 0 11.245-5.034 11.245-11.244S17.854.933 11.643.933C5.434.933.4 5.968.4 12.178c0 6.21 5.034 11.244 11.244 11.244z" fill="#F3F9FF" mask="url(#ar)"/></g><g transform="translate(158 2)"><mask id="at" fill="#fff"><use xlink:href="#as"/></mask><path d="M11.644 23.422c6.21 0 11.245-5.034 11.245-11.244S17.854.933 11.643.933C5.434.933.4 5.968.4 12.178c0 6.21 5.034 11.244 11.244 11.244z" stroke-opacity=".4" stroke="#6DB0EA" stroke-width="2" stroke-linecap="round" stroke-linejoin="round" mask="url(#at)"/></g><g transform="translate(161 18)"><mask id="av" fill="#fff"><use xlink:href="#au"/></mask><path d="M-4.79-4.42h26.852v20.67h-26.85V-4.42z" fill="#CCE7FF" mask="url(#av)"/></g><g transform="translate(158 3)"><mask id="ax" fill="#fff"><use xlink:href="#aw"/></mask><path d="M16.623 16.175c1.9.382 3.44 2.3 3.44 4.273v1.118s-5.64 4.685-8.42 4.685c-2.837 0-8.432-4.684-8.432-4.684v-1.118c0-1.974 1.54-3.89 3.44-4.273 0 0 1.554-.48 4.987-.594 3.432.116 4.986.595 4.986.595z" stroke-opacity=".4" stroke="#83C1F6" stroke-linecap="round" stroke-linejoin="round" mask="url(#ax)"/></g><g transform="translate(165 9)"><mask id="az" fill="#fff"><use xlink:href="#ay"/></mask><path d="M-4.328-4.976h17.93v19.553H-4.33V-4.976z" fill="#FFF" mask="url(#az)"/></g><g transform="translate(158 3)"><mask id="aB" fill="#fff"><use xlink:href="#aA"/></mask><path d="M11.637 15.577c3.398 0 3.964-2.23 3.964-5.095 0-2.866-1.68-4.458-3.963-4.458-2.164 0-3.965 1.592-3.965 4.458s.566 5.095 3.965 5.095z" stroke-opacity=".4" stroke="#83C1F6" stroke-linecap="round" stroke-linejoin="round" mask="url(#aB)"/></g><g transform="translate(137 156)"><mask id="aD" fill="#fff"><use xlink:href="#aC"/></mask><path d="M12.11 22.933c6.21 0 11.246-5.034 11.246-11.244S18.32.443 12.11.443C5.9.444.868 5.48.868 11.69c0 6.21 5.034 11.243 11.244 11.243z" fill="#F3F9FF" mask="url(#aD)"/></g><g transform="translate(137 156)"><mask id="aF" fill="#fff"><use xlink:href="#aE"/></mask><path d="M12.11 22.933c6.21 0 11.246-5.034 11.246-11.244S18.32.443 12.11.443C5.9.444.868 5.48.868 11.69c0 6.21 5.034 11.243 11.244 11.243z" stroke-opacity=".4" stroke="#6DB0EA" stroke-width="2" stroke-linecap="round" stroke-linejoin="round" mask="url(#aF)"/></g><g transform="translate(141 172)"><mask id="aH" fill="#fff"><use xlink:href="#aG"/></mask><path d="M-5.322-4.908h26.85v20.67H-5.32v-20.67z" fill="#CCE7FF" mask="url(#aH)"/></g><g transform="translate(138 156)"><mask id="aJ" fill="#fff"><use xlink:href="#aI"/></mask><path d="M16.09 16.686c1.9.383 3.44 2.3 3.44 4.273v1.117s-5.64 4.685-8.42 4.685c-2.837 0-8.432-4.685-8.432-4.685V20.96c0-1.975 1.54-3.89 3.438-4.274 0 0 1.555-.48 4.987-.594 3.433.115 4.987.594 4.987.594z" stroke-opacity=".4" stroke="#83C1F6" stroke-linecap="round" stroke-linejoin="round" mask="url(#aJ)"/></g><g transform="translate(145 162)"><mask id="aL" fill="#fff"><use xlink:href="#aK"/></mask><path d="M-4.862-4.465h17.93v19.553h-17.93V-4.465z" fill="#FFF" mask="url(#aL)"/></g><g transform="translate(138 156)"><mask id="aN" fill="#fff"><use xlink:href="#aM"/></mask><path d="M11.103 16.088c3.4 0 3.965-2.23 3.965-5.095 0-2.866-1.682-4.458-3.965-4.458-2.163 0-3.965 1.592-3.965 4.458s.567 5.095 3.965 5.095z" stroke-opacity=".4" stroke="#83C1F6" stroke-linecap="round" stroke-linejoin="round" mask="url(#aN)"/></g><g transform="translate(293 223)"><mask id="aP" fill="#fff"><use xlink:href="#aO"/></mask><path d="M19.89 40.022c10.8 0 19.554-8.755 19.554-19.555C39.444 9.667 30.69.91 19.89.91 9.09.91.332 9.667.332 20.468c0 10.8 8.756 19.555 19.556 19.555z" fill="#F9F8FF" mask="url(#aP)"/></g><g transform="translate(293 223)"><mask id="aR" fill="#fff"><use xlink:href="#aQ"/></mask><path d="M19.89 40.022c10.8 0 19.554-8.755 19.554-19.555C39.444 9.667 30.69.91 19.89.91 9.09.91.332 9.667.332 20.468c0 10.8 8.756 19.555 19.556 19.555z" stroke-opacity=".4" stroke="#9284C5" stroke-width="2" stroke-linecap="round" stroke-linejoin="round" mask="url(#aR)"/></g><g transform="translate(299 251)"><mask id="aT" fill="#fff"><use xlink:href="#aS"/></mask><path d="M-5.778-4.875h39.306V23.68H-5.778V-4.874z" fill="#E1DBF6" mask="url(#aT)"/></g><g transform="translate(294 224)"><mask id="aV" fill="#fff"><use xlink:href="#aU"/></mask><path d="M27.548 28.158c3.303.665 5.98 3.997 5.98 7.43v1.945s-9.807 8.148-14.64 8.148c-4.935 0-14.666-8.147-14.666-8.147V35.59c0-3.435 2.678-6.767 5.98-7.432 0 0 2.703-.834 8.673-1.033 5.97.2 8.673 1.033 8.673 1.033z" stroke-opacity=".4" stroke="#A192D7" stroke-linecap="round" stroke-linejoin="round" mask="url(#aV)"/></g><g transform="translate(305 234)"><mask id="aX" fill="#fff"><use xlink:href="#aW"/></mask><path d="M-4.02-4.496h23.79v26.614H-4.02V-4.496z" fill="#FFF" mask="url(#aX)"/></g><g transform="translate(294 224)"><mask id="aZ" fill="#fff"><use xlink:href="#aY"/></mask><path d="M18.875 27.118c5.91 0 6.896-3.877 6.896-8.86 0-4.985-2.926-7.754-6.895-7.754-3.762 0-6.895 2.77-6.895 7.753 0 4.984.985 8.86 6.895 8.86z" stroke-opacity=".4" stroke="#A192D7" stroke-linecap="round" stroke-linejoin="round" mask="url(#aZ)"/></g><g transform="translate(58 141)"><mask id="bb" fill="#fff"><use xlink:href="#ba"/></mask><path d="M7.268 1.736A2 2 0 0 1 9.716.317l31.088 8.33a2.004 2.004 0 0 1 1.41 2.454l-7.06 26.35a2 2 0 0 1-2.45 1.42L1.618 30.54a2.004 2.004 0 0 1-1.41-2.454l7.06-26.35z" fill="#FFF" mask="url(#bb)"/></g><g transform="translate(58 141)"><mask id="bd" fill="#fff"><use xlink:href="#bc"/></mask><path d="M7.268 1.737A2 2 0 0 1 9.716.317l31.088 8.33a2.004 2.004 0 0 1 1.41 2.453l-7.06 26.35a2 2 0 0 1-2.45 1.42L1.618 30.54a2.004 2.004 0 0 1-1.41-2.454l7.06-26.35z" stroke-opacity=".4" stroke="#6DB0EA" stroke-width="2" stroke-linecap="round" stroke-linejoin="round" mask="url(#bd)"/></g><g transform="translate(62 165)"><mask id="bf" fill="#fff"><use xlink:href="#be"/></mask><path d="M-2.986-6.087l33.97 9.102-2.994 11.17-33.97-9.1 2.994-11.172z" fill="#CCE7FF" mask="url(#bf)"/></g><g transform="translate(61 167)"><mask id="bh" fill="#fff"><use xlink:href="#bg"/></mask><path d="M-2.593-5.82L23.78 1.246l-2.994 11.17L-5.586 5.35l2.993-11.17z" fill="#CCE7FF" mask="url(#bh)"/></g><g transform="translate(62 144)"><mask id="bj" fill="#fff"><use xlink:href="#bi"/></mask><path d="M2.326-5.73L41.263 4.7l-7.65 28.55-38.937-10.435L2.326-5.73z" fill="#CCE7FF" mask="url(#bj)"/></g><g transform="translate(62 153)"><mask id="bl" fill="#fff"><use xlink:href="#bk"/></mask><path d="M-1.517-8.032L39.09 2.848 33.025 25.49-7.584 14.61l6.067-22.642z" fill="#F3F9FF" mask="url(#bl)"/></g><g transform="translate(82 154)"><mask id="bn" fill="#fff"><use xlink:href="#bm"/></mask><path d="M-2.182-6.904l16.535 4.43L9.837 14.38-6.698 9.95l4.516-16.854z" fill="#F3F9FF" mask="url(#bn)"/></g><g transform="translate(251 183)"><mask id="bp" fill="#fff"><use xlink:href="#bo"/></mask><path d="M.006-8.23L31.646.25l-8.478 31.64-31.64-8.478L.006-8.23z" fill="#E1DBF6" mask="url(#bp)"/></g><path d="M273.577 197.774c-1.626 6.07-7.865 9.672-13.935 8.045-6.07-1.627-9.672-7.866-8.045-13.936 1.626-6.07 7.865-9.67 13.935-8.045l-2.758 10.29a.72.72 0 0 0 .513.887l10.29 2.757z" stroke-opacity=".4" stroke="#A192D7" stroke-linecap="round" stroke-linejoin="round"/><g transform="translate(264 182)"><mask id="br" fill="#fff"><use xlink:href="#bq"/></mask><path d="M11.2 14.39C12.546 8.575 9.153 2.7 3.445.955c-.358.352-.63.8-.77 1.32L.49 10.43a1.456 1.456 0 0 0 1.03 1.783l8.152 2.186c.52.14 1.045.128 1.53-.006z" fill="#FFF" mask="url(#br)"/></g><g transform="translate(264 182)"><mask id="bt" fill="#fff"><use xlink:href="#bs"/></mask><path d="M11.2 14.39C12.546 8.575 9.153 2.7 3.445.955c-.358.352-.63.8-.77 1.32L.49 10.43a1.456 1.456 0 0 0 1.03 1.783l8.152 2.186c.52.14 1.045.128 1.53-.006z" stroke-opacity=".4" stroke="#9284C5" stroke-width="2" stroke-linecap="round" stroke-linejoin="round" mask="url(#bt)"/></g><g transform="translate(373 131)"><mask id="bv" fill="#fff"><use xlink:href="#bu"/></mask><path d="M11.756 22.51C17.966 22.51 23 17.478 23 11.268S17.966.022 11.756.022.51 5.056.51 11.267c0 6.21 5.035 11.244 11.246 11.244z" fill="#F9F8FF" mask="url(#bv)"/></g><g transform="translate(373 131)"><mask id="bx" fill="#fff"><use xlink:href="#bw"/></mask><path d="M11.756 22.51C17.966 22.51 23 17.478 23 11.268S17.966.022 11.756.022.51 5.057.51 11.267c0 6.21 5.035 11.244 11.246 11.244z" stroke-opacity=".4" stroke="#9284C5" stroke-width="2" stroke-linecap="round" stroke-linejoin="round" mask="url(#bx)"/></g><g transform="translate(376 146)"><mask id="bz" fill="#fff"><use xlink:href="#by"/></mask><path d="M-4.678-4.33h26.85v20.67h-26.85V-4.33z" fill="#E1DBF6" mask="url(#bz)"/></g><g transform="translate(373 131)"><mask id="bB" fill="#fff"><use xlink:href="#bA"/></mask><path d="M16.734 16.264c1.9.382 3.44 2.3 3.44 4.273v1.118s-5.64 4.685-8.418 4.685c-2.84 0-8.434-4.685-8.434-4.685v-1.118c0-1.974 1.54-3.89 3.44-4.273 0 0 1.553-.48 4.986-.594 3.432.115 4.986.594 4.986.594z" stroke-opacity=".4" stroke="#A192D7" stroke-linecap="round" stroke-linejoin="round" mask="url(#bB)"/></g><g transform="translate(380 137)"><mask id="bD" fill="#fff"><use xlink:href="#bC"/></mask><path d="M-4.217-4.887h17.93v19.553h-17.93V-4.887z" fill="#FFF" mask="url(#bD)"/></g><g transform="translate(373 131)"><mask id="bF" fill="#fff"><use xlink:href="#bE"/></mask><path d="M11.748 15.666c3.398 0 3.965-2.23 3.965-5.095 0-2.865-1.683-4.457-3.965-4.457-2.163 0-3.965 1.592-3.965 4.458 0 2.867.566 5.096 3.965 5.096z" stroke-opacity=".4" stroke="#A192D7" stroke-linecap="round" stroke-linejoin="round" mask="url(#bF)"/></g><g transform="translate(245 143)"><mask id="bH" fill="#fff"><use xlink:href="#bG"/></mask><path d="M-4.578-4.267H94.4v27.6H-4.578v-27.6z" fill="#9284C5" mask="url(#bH)"/></g><g transform="translate(252 149)"><mask id="bJ" fill="#fff"><use xlink:href="#bI"/></mask><path d="M-4.058-4.386h84.33v17.24h-84.33v-17.24z" fill="#FFFEFF" mask="url(#bJ)"/></g><g transform="translate(298 95)"><mask id="bL" fill="#fff"><use xlink:href="#bK"/></mask><path d="M-5.902 3.624L31.06-6.28l8.916 33.27-36.96 9.905-8.915-33.27z" fill="#FFF" mask="url(#bL)"/></g><path d="M298.482 103.13a1 1 0 0 1 .712-1.23l25.357-6.795a1.002 1.002 0 0 1 1.233.71l5.807 21.67a1 1 0 0 1-.712 1.23l-25.357 6.796a1.002 1.002 0 0 1-1.23-.708l-5.808-21.673z" stroke-opacity=".4" stroke="#9284C5" stroke-linecap="round" stroke-linejoin="round"/><g transform="translate(305 114)"><mask id="bN" fill="#fff"><use xlink:href="#bM"/></mask><path d="M-5.624 2.287l28.65-7.677 2.905 10.84-28.65 7.677-2.904-10.84z" fill="#E1DBF6" mask="url(#bN)"/></g><g transform="translate(306 118)"><mask id="bP" fill="#fff"><use xlink:href="#bO"/></mask><path d="M-6.15.058L16.566-6.03 19.47 4.81-3.244 10.9-6.15.058z" fill="#E1DBF6" mask="url(#bP)"/></g><g><g transform="translate(301 97)"><mask id="bR" fill="#fff"><use xlink:href="#bQ"/></mask><path d="M-6.095 3.245l32.533-8.718 6.543 24.417L.45 27.66-6.095 3.246z" fill="#E1DBF6" mask="url(#bR)"/></g><g transform="translate(303 108)"><mask id="bT" fill="#fff"><use xlink:href="#bS"/></mask><path d="M-8.078-1.722L25.76-10.79l5.306 19.803-33.838 9.067-5.306-19.802z" fill="#F9F8FF" mask="url(#bT)"/></g><g transform="translate(315 102)"><mask id="bV" fill="#fff"><use xlink:href="#bU"/></mask><path d="M-6.165-1.835l15.03-4.027 4.096 15.28-15.03 4.028-4.095-15.28z" fill="#F9F8FF" mask="url(#bV)"/></g></g><g transform="translate(123 48)"><mask id="bX" fill="#fff"><use xlink:href="#bW"/></mask><path d="M18.56-7.99L32.547 5.995l-28.31 28.31L-9.75 20.32 18.56-7.99z" fill="#F3F9FF" mask="url(#bX)"/></g><path d="M139.795 48.846a2.498 2.498 0 0 1 3.528-.003l3.39 3.39a2.494 2.494 0 0 1-.004 3.527l-14.165 14.164-8.767 1.853 1.853-8.767 14.165-14.164z" stroke-opacity=".4" stroke="#6DB0EA" stroke-linecap="round" stroke-linejoin="round"/><g transform="translate(136 48)"><mask id="bZ" fill="#fff"><use xlink:href="#bY"/></mask><path d="M5.56-7.99L19.547 5.995l-12.38 12.38L-6.82 4.392 5.56-7.99z" fill="#FFF" mask="url(#bZ)"/></g><path d="M139.793 48.85a2.5 2.5 0 0 1 3.53-.007l3.39 3.39a2.5 2.5 0 0 1-.006 3.53l-3.542 3.542-6.914-6.914 3.543-3.54z" stroke-opacity=".4" stroke="#6DB0EA" stroke-linecap="round" stroke-linejoin="round"/><g transform="translate(136 48)"><mask id="cb" fill="#fff"><use xlink:href="#ca"/></mask><path d="M5.56-7.99L19.547 5.995l-12.38 12.38L-6.82 4.392 5.56-7.99z" fill="#F3F9FF" mask="url(#cb)"/></g><path d="M139.793 48.85a2.5 2.5 0 0 1 3.53-.007l3.39 3.39a2.5 2.5 0 0 1-.006 3.53l-3.542 3.542-6.914-6.914 3.543-3.54z" stroke-opacity=".4" stroke="#6DB0EA" stroke-linecap="round" stroke-linejoin="round"/><g transform="translate(122 62)"><mask id="cd" fill="#fff"><use xlink:href="#cc"/></mask><path d="M5.032-7.46L19.017 6.523 4.35 21.19-9.635 7.205 5.032-7.46z" fill="#FFF" mask="url(#cd)"/></g><path d="M127.886 62.984a1.212 1.212 0 0 1 1.23 1.228l-.028 2.255 2.255-.026a1.212 1.212 0 0 1 1.23 1.23l-.028 2.254-9.652 2.738 2.738-9.652 2.256-.026z" stroke-opacity=".4" stroke="#6DB0EA" stroke-linecap="round" stroke-linejoin="round"/><g transform="translate(122 68)"><mask id="cf" fill="#fff"><use xlink:href="#ce"/></mask><path d="M1.82-6.792L12.348 3.736l-9.726 9.726L-7.906 2.934 1.82-6.792z" fill="#ADD1F3" mask="url(#cf)"/></g><g transform="translate(135 50)"><mask id="ch" fill="#fff"><use xlink:href="#cg"/></mask><path d="M3.02-6.45L17.007 7.535 7.28 17.26-6.705 3.277 3.02-6.45z" fill="#FFF" mask="url(#ch)"/></g><path d="M138.02 50.62l6.915 6.915-2.655 2.655-6.914-6.914 2.655-2.655z" stroke-opacity=".4" stroke="#6DB0EA" stroke-linecap="round" stroke-linejoin="round"/><g transform="translate(192 77)"><mask id="cj" fill="#fff"><use xlink:href="#ci"/></mask><path d="M10.73 121.183c19.8-21.007 31.937-49.318 31.937-80.465 0-14.224-2.532-27.857-7.168-40.474C13.61 18.176-.357 45.416-.357 75.918c0 16.334 4.005 31.73 11.086 45.265z" fill="#A7B3E8" mask="url(#cj)"/></g><g transform="translate(191 77)"><mask id="cl" fill="#fff"><use xlink:href="#ck"/></mask><path d="M11.73 121.183c19.8-21.007 31.937-49.318 31.937-80.465 0-14.224-2.532-27.857-7.168-40.474C14.61 18.176.643 45.416.643 75.918c0 16.333 4.005 31.73 11.086 45.265z" stroke="#7989D4" stroke-width="3" stroke-linecap="round" stroke-linejoin="round" mask="url(#cl)"/></g><g transform="translate(211 140)"><mask id="cn" fill="#fff"><use xlink:href="#cm"/></mask><path d="M-4.8-4.2h17.822v17.822H-4.8V-4.2z" fill-opacity=".5" fill="#FFF" mask="url(#cn)"/></g><g transform="translate(242 99)"><mask id="cp" fill="#fff"><use xlink:href="#co"/></mask><path d="M7.078-5.724l3.6 13.438-13.437 3.6-3.6-13.437 13.438-3.6z" fill="#E1DBF6" mask="url(#cp)"/></g><g transform="translate(220 95)"><mask id="cr" fill="#fff"><use xlink:href="#cq"/></mask><path d="M7.658-6.107l3.6 13.437-13.436 3.6-3.6-13.436 13.436-3.6z" fill-opacity=".5" fill="#FFF" mask="url(#cr)"/></g><g transform="translate(181 140)"><mask id="ct" fill="#fff"><use xlink:href="#cs"/></mask><path d="M7.547-6.13l3.6 13.438-13.437 3.6-3.6-13.437 13.437-3.6z" fill="#CCE7FF" mask="url(#ct)"/></g><g transform="translate(230 113)"><mask id="cv" fill="#fff"><use xlink:href="#cu"/></mask><path d="M5.606-5.573L8.7 5.975-2.848 9.07-5.942-2.48 5.606-5.572z" fill-opacity=".5" fill="#FFF" mask="url(#cv)"/></g><g transform="translate(240 91)"><mask id="cx" fill="#fff"><use xlink:href="#cw"/></mask><path d="M5.856-5.97L8.95 5.576-2.598 8.672-5.692-2.876 5.856-5.97z" fill="#E1DBF6" mask="url(#cx)"/></g><g transform="translate(207 120)"><mask id="cz" fill="#fff"><use xlink:href="#cy"/></mask><path d="M6.14-5.96L9.232 5.59-2.315 8.684-5.41-2.864 6.14-5.96z" fill-opacity=".5" fill="#FFF" mask="url(#cz)"/></g><g transform="translate(193 101)"><mask id="cB" fill="#fff"><use xlink:href="#cA"/></mask><path d="M5.472-5.537l3.094 11.55-11.548 3.093-3.094-11.548L5.472-5.537z" fill="#CCE7FF" mask="url(#cB)"/></g><g transform="translate(204 93)"><mask id="cD" fill="#fff"><use xlink:href="#cC"/></mask><path d="M5.228-6.337l3.094 11.55-11.548 3.093L-6.32-3.242 5.228-6.337z" fill="#CCE7FF" mask="url(#cD)"/></g><g transform="translate(198 172)"><mask id="cF" fill="#fff"><use xlink:href="#cE"/></mask><path d="M-4.51-4.91H9.4V9H-4.51V-4.91z" fill-opacity=".5" fill="#FFF" mask="url(#cF)"/></g><g transform="translate(188 191)"><mask id="cH" fill="#fff"><use xlink:href="#cG"/></mask><path d="M-4.29-4.356H9.623V9.556h-13.91V-4.356z" fill="#CCE7FF" mask="url(#cH)"/></g><g transform="translate(226 178)"><mask id="cJ" fill="#fff"><use xlink:href="#cI"/></mask><path d="M-4.156-4.067H7.8V7.89H-4.156V-4.068z" fill="#E1DBF6" mask="url(#cJ)"/></g><g transform="translate(212 170)"><mask id="cL" fill="#fff"><use xlink:href="#cK"/></mask><path d="M-4.822-4.867H7.133V7.09H-4.822V-4.868z" fill-opacity=".5" fill="#FFF" mask="url(#cL)"/></g><g transform="translate(189 173)"><mask id="cN" fill="#fff"><use xlink:href="#cM"/></mask><path d="M-4.31-4.933H7.643V7.022H-4.31V-4.933z" fill="#CCE7FF" mask="url(#cN)"/></g><g transform="translate(186 133)"><mask id="cP" fill="#fff"><use xlink:href="#cO"/></mask><path d="M-4.244-4.044H7.71V7.91H-4.243V-4.043z" fill="#CCE7FF" mask="url(#cP)"/></g></g></svg>