<svg width="416" height="300" viewBox="0 0 416 300" xmlns="http://www.w3.org/2000/svg" xmlns:xlink="http://www.w3.org/1999/xlink"><title>poooo</title><defs><path id="a" d="M.75 3.995A3.247 3.247 0 0 1 4.006.75h94.988c1.8 0 3.256 1.45 3.256 3.245v72.01a3.247 3.247 0 0 1-3.256 3.245H4.006c-1.8 0-3.256-1.45-3.256-3.245V3.995z"/><path id="c" d="M0 3.995A3.997 3.997 0 0 1 4.006 0h94.988A3.997 3.997 0 0 1 103 3.995v72.01A3.997 3.997 0 0 1 98.994 80H4.006A3.997 3.997 0 0 1 0 76.005V3.995z"/><path id="e" d="M100.5 10V2.998A2.503 2.503 0 0 0 98.003.5H2.997A2.5 2.5 0 0 0 .5 2.998V10h100z"/><path id="g" d="M0 0h76v2H0V0z"/><path id="i" d="M0 0h42v2H0V0z"/><path id="k" d="M0 0h62v2H0V0z"/><path id="m" d="M0 0h20v2H0V0z"/><path id="o" d="M0 0h62v2H0V0z"/><path id="q" d="M0 0h1v4H0V0z"/><path id="s" d="M0 0h5v2H0V0z"/><path id="u" d="M0 2C0 .895.888 0 2 0c1.105 0 2 .888 2 2 0 1.105-.888 2-2 2-1.105 0-2-.888-2-2z"/><path id="w" d="M0 2C0 .895.888 0 2 0c1.105 0 2 .888 2 2 0 1.105-.888 2-2 2-1.105 0-2-.888-2-2z"/><path id="y" d="M.75 3.995A3.25 3.25 0 0 1 4 .75h153c1.797 0 3.25 1.45 3.25 3.245v72.01A3.25 3.25 0 0 1 157 79.25H4a3.244 3.244 0 0 1-3.25-3.245V3.995z"/><path id="A" d="M0 3.995A4 4 0 0 1 4 0h153c2.21 0 4 1.783 4 3.995v72.01A4 4 0 0 1 157 80H4c-2.21 0-4-1.783-4-3.995V3.995z"/><path id="C" d="M.5 76.437v-43.89h41.17l23.365 24.07 34.573-34.68h37.558L158.5 0v74.493a2 2 0 0 1-2.003 2.007H1a2 2 0 0 1-.5-.063z"/><path id="E" d="M3 6a3 3 0 1 0 0-6 3 3 0 0 0 0 6z"/><path id="G" d="M3 6a3 3 0 1 0 0-6 3 3 0 0 0 0 6z"/><path id="I" d="M3 6a3 3 0 1 0 0-6 3 3 0 0 0 0 6z"/><path id="K" d="M3 6a3 3 0 1 0 0-6 3 3 0 0 0 0 6z"/><path id="M" d="M.75 3.995A3.24 3.24 0 0 1 3.998.75h271.004a3.243 3.243 0 0 1 3.248 3.245v72.01a3.24 3.24 0 0 1-3.248 3.245H3.998A3.243 3.243 0 0 1 .75 76.005V3.995z"/><path id="O" d="M0 3.995A3.99 3.99 0 0 1 3.998 0h271.004A3.993 3.993 0 0 1 279 3.995v72.01A3.99 3.99 0 0 1 275.002 80H3.998A3.993 3.993 0 0 1 0 76.005V3.995z"/><path id="Q" d="M0 9c0-4.97 4.036-9 9-9h94a9 9 0 0 1 9 9c0 4.97-4.036 9-9 9H9a9 9 0 0 1-9-9z"/><path d="M6.425 8.643a3.9 3.9 0 0 1-1.075.37c-.432.09-.87.133-1.316.133-.812 0-1.525-.172-2.138-.518A3.454 3.454 0 0 1 .49 7.158C.164 6.52.002 5.792.002 4.967c0-.87.187-1.652.562-2.343A3.96 3.96 0 0 1 2.14 1.022 4.512 4.512 0 0 1 4.38.457c.35 0 .717.03 1.096.088.378.06.695.144.95.258V2.22a3.878 3.878 0 0 0-2.005-.527 3.01 3.01 0 0 0-1.537.393c-.45.262-.8.634-1.046 1.116-.246.483-.37 1.044-.37 1.685 0 .93.255 1.666.762 2.21.507.542 1.185.813 2.033.813.824 0 1.545-.197 2.162-.592v1.325zM11.657 9v-.902h-.023a2.036 2.036 0 0 1-1.81 1.05c-.7-.002-1.233-.21-1.6-.628-.368-.418-.55-1.045-.55-1.88V3h1.37v3.47c0 1.046.416 1.57 1.248 1.57.41 0 .74-.145.99-.435.25-.29.375-.667.375-1.136V3h1.366v6h-1.366zm6.71-1.717c0 .56-.216 1.01-.645 1.35-.43.343-1.012.513-1.746.513-.24 0-.51-.03-.812-.093a3.534 3.534 0 0 1-.76-.235V7.523c.25.18.525.32.822.416.296.097.564.146.802.146.65 0 .973-.215.973-.645a.625.625 0 0 0-.096-.365 1.043 1.043 0 0 0-.334-.275 6.533 6.533 0 0 0-.735-.343c-.39-.168-.68-.33-.87-.486a1.47 1.47 0 0 1-.422-.55 1.837 1.837 0 0 1-.138-.738c0-.54.213-.98.64-1.32.425-.34.975-.508 1.65-.508.208 0 .444.024.707.073.264.05.478.108.642.178V4.33a2.38 2.38 0 0 0-.65-.302 2.543 2.543 0 0 0-.745-.114c-.27 0-.483.06-.64.182a.56.56 0 0 0-.234.463c0 .21.062.375.185.494.124.12.414.27.87.454.564.226.96.478 1.19.756.23.277.346.617.346 1.02zm4.417 1.658a1.686 1.686 0 0 1-.436.14c-.21.044-.412.066-.607.066-1.175 0-1.762-.632-1.762-1.898V4.09h-.997V3h.997V1.617l1.36-.416V3h1.447v1.09h-1.447v2.906c0 .38.068.648.205.806.137.158.352.237.644.237.08 0 .177-.018.296-.05.12-.034.22-.078.302-.133V8.94zm6.785-3c0 .974-.282 1.75-.844 2.333-.563.582-1.327.873-2.29.873-.927 0-1.665-.276-2.213-.83-.55-.55-.824-1.3-.824-2.246 0-.996.28-1.78.843-2.355.563-.574 1.342-.86 2.338-.86.94 0 1.67.273 2.198.822.528.55.79 1.303.79 2.264zm-1.407.048c0-.664-.147-1.168-.442-1.51-.294-.345-.7-.517-1.215-.517-.53 0-.947.18-1.248.54-.3.36-.45.867-.45 1.523 0 .637.15 1.132.45 1.486.3.352.72.53 1.26.53.543 0 .953-.175 1.23-.522.277-.348.416-.858.416-1.53zM38.51 9V5.613c0-.578-.09-.998-.27-1.26-.178-.26-.485-.392-.92-.392-.354 0-.653.163-.895.487-.242.324-.363.72-.363 1.184V9h-1.354V5.496c0-1.023-.393-1.535-1.178-1.535-.375 0-.678.156-.91.467-.233.31-.35.712-.35 1.204V9h-1.353V3h1.353v.926h.024c.426-.715 1.06-1.072 1.898-1.072.403 0 .755.103 1.058.31.303.207.52.496.648.867.242-.41.528-.708.858-.895.33-.188.716-.28 1.157-.28.637 0 1.122.192 1.456.58.333.385.5 1.004.5 1.856V9h-1.36zm3.962-2.602c.027.547.193.963.498 1.248.304.286.74.428 1.306.428a3.165 3.165 0 0 0 1.8-.574v1.143c-.227.148-.532.27-.915.363-.382.094-.786.14-1.212.14-.91 0-1.615-.272-2.115-.817-.5-.546-.75-1.303-.75-2.27 0-.642.124-1.203.372-1.683a2.77 2.77 0 0 1 1.03-1.122c.44-.268.924-.4 1.452-.4.828 0 1.47.252 1.93.76.46.508.69 1.21.69 2.11v.673H42.47zm2.736-1.02c0-.476-.11-.84-.334-1.09-.223-.25-.535-.374-.938-.374-.367 0-.685.136-.955.407-.268.273-.438.625-.508 1.06h2.736zm6.04-1.06a1.108 1.108 0 0 0-.345-.14 1.707 1.707 0 0 0-.44-.065c-.394 0-.712.168-.954.504-.243.336-.364.774-.364 1.313V9h-1.354V3h1.353v1.166h.024c.132-.402.333-.715.602-.937.27-.224.58-.335.932-.335.234 0 .416.027.545.082v1.34zm7.255 2.965c0 .56-.215 1.01-.645 1.35-.43.343-1.01.513-1.746.513-.238 0-.51-.03-.81-.093a3.534 3.534 0 0 1-.76-.235V7.523c.25.18.523.32.82.416.297.097.565.146.803.146.648 0 .973-.215.973-.645a.625.625 0 0 0-.097-.365 1.042 1.042 0 0 0-.333-.275 6.533 6.533 0 0 0-.735-.343c-.39-.168-.68-.33-.87-.486-.19-.156-.33-.34-.422-.55a1.837 1.837 0 0 1-.138-.738c0-.54.213-.98.64-1.32.424-.34.975-.508 1.65-.508.208 0 .443.024.707.073.263.05.477.108.64.178V4.33a2.382 2.382 0 0 0-.65-.302 2.543 2.543 0 0 0-.744-.114c-.27 0-.482.06-.64.182a.56.56 0 0 0-.233.463c0 .21.062.375.185.494.123.12.413.27.87.454.562.226.96.478 1.19.756.23.277.345.617.345 1.02zM63.583 9v-.902h-.023a2.036 2.036 0 0 1-1.81 1.05c-.7-.002-1.233-.21-1.6-.628-.368-.418-.55-1.045-.55-1.88V3h1.37v3.47c0 1.046.416 1.57 1.248 1.57.41 0 .74-.145.99-.435.25-.29.375-.667.375-1.136V3h1.365v6h-1.365zm8.965-3.158c0 1.008-.248 1.81-.744 2.408-.496.598-1.168.896-2.016.896-.727 0-1.29-.3-1.693-.902h-.024v3.516H66.72V3h1.353v.96h.025c.476-.737 1.14-1.106 1.992-1.106.766 0 1.367.267 1.805.802.437.535.656 1.264.656 2.186zm-1.406-.024c0-.578-.132-1.032-.396-1.362-.264-.33-.632-.495-1.104-.495-.473 0-.855.167-1.146.5-.29.33-.436.76-.436 1.288v.768c0 .44.138.805.416 1.092.277.288.623.43 1.037.43.515 0 .916-.19 1.2-.573.286-.383.43-.932.43-1.647zm8.584.024c0 1.008-.248 1.81-.745 2.408-.495.598-1.166.896-2.014.896-.727 0-1.29-.3-1.694-.902h-.023v3.516h-1.355V3h1.354v.96h.022c.477-.737 1.14-1.106 1.993-1.106.765 0 1.367.267 1.804.802.437.535.656 1.264.656 2.186zm-1.407-.024c0-.578-.132-1.032-.396-1.362-.264-.33-.632-.495-1.105-.495s-.855.167-1.146.5c-.29.33-.437.76-.437 1.288v.768c0 .44.14.805.416 1.092.278.288.623.43 1.037.43.516 0 .916-.19 1.202-.573.285-.383.427-.932.427-1.647zm8.478.123c0 .974-.28 1.75-.844 2.333-.562.582-1.326.873-2.29.873-.927 0-1.664-.276-2.213-.83-.548-.55-.822-1.3-.822-2.246 0-.996.28-1.78.844-2.355.562-.574 1.342-.86 2.338-.86.937 0 1.67.273 2.197.822.527.55.79 1.303.79 2.264zm-1.406.048c0-.664-.148-1.168-.443-1.51-.296-.345-.7-.517-1.217-.517-.53 0-.947.18-1.248.54-.3.36-.45.867-.45 1.523 0 .637.15 1.132.45 1.486.3.352.72.53 1.26.53.543 0 .953-.175 1.23-.522.278-.348.417-.858.417-1.53zm6.21-1.67a1.108 1.108 0 0 0-.345-.14 1.707 1.707 0 0 0-.44-.065c-.394 0-.712.168-.955.504-.242.336-.363.774-.363 1.313V9h-1.355V3H89.5v1.166h.022c.133-.402.334-.715.604-.937.27-.224.58-.335.932-.335.234 0 .416.027.544.082v1.34zm4.56 4.623a1.683 1.683 0 0 1-.437.14c-.21.044-.41.066-.607.066-1.176 0-1.763-.632-1.763-1.898V4.09h-.997V3h.996V1.617l1.36-.416V3h1.447v1.09h-1.446v2.906c0 .38.068.648.205.806.136.158.35.237.644.237.078 0 .176-.018.295-.05.118-.034.22-.078.3-.133V8.94z" id="S"/><path id="U" d="M18 36c9.94 0 18-8.06 18-18S27.94 0 18 0 0 8.06 0 18s8.06 18 18 18z"/><path id="W" d="M18 36c9.94 0 18-8.06 18-18S27.94 0 18 0 0 8.06 0 18s8.06 18 18 18z"/><path id="Y" d="M25.674 4.702A17.204 17.204 0 0 1 13 10.25c-5.02 0-9.538-2.144-12.69-5.565C1.278 2.847 3.018 1.4 5.005 1c0 0 2.487-.767 7.982-.95C18.482.232 20.97 1 20.97 1c1.993.4 3.738 1.857 4.704 3.702z"/><path id="aa" d="M18 35.25c9.527 0 17.25-7.723 17.25-17.25C35.25 8.473 27.527.75 18 .75 8.473.75.75 8.473.75 18c0 9.527 7.723 17.25 17.25 17.25z"/><path id="ac" d="M6.987 16.042c5.44 0 6.347-3.568 6.347-8.156C13.334 3.3 10.64.75 6.987.75 3.525.75.64 3.3.64 7.886c0 4.588.907 8.156 6.347 8.156z"/><path id="ae" d="M18 35.25c9.527 0 17.25-7.723 17.25-17.25C35.25 8.473 27.527.75 18 .75 8.473.75.75 8.473.75 18c0 9.527 7.723 17.25 17.25 17.25z"/><path id="ag" d="M11 22c6.075 0 11-4.925 11-11S17.075 0 11 0 0 4.925 0 11s4.925 11 11 11z"/><path id="ai" d="M11 22c6.075 0 11-4.925 11-11S17.075 0 11 0 0 4.925 0 11s4.925 11 11 11z"/><path id="ak" d="M15.745 3.15A10.513 10.513 0 0 1 8 6.543c-3.067 0-5.83-1.31-7.755-3.4C.837 2.017 1.9 1.13 3.115.888c0 0 1.52-.47 4.877-.582 3.358.112 4.88.58 4.88.58 1.216.246 2.283 1.136 2.873 2.263z"/><path id="am" d="M11 21.542c5.822 0 10.542-4.72 10.542-10.542S16.822.458 11 .458.458 5.178.458 11 5.178 21.542 11 21.542z"/><path id="ao" d="M3.992 10.304c3.325 0 3.88-2.18 3.88-4.985C7.87 2.515 6.224.957 3.99.957 1.876.958.114 2.516.114 5.318c0 2.805.554 4.986 3.878 4.986z"/><path id="aq" d="M11 21.542c5.822 0 10.542-4.72 10.542-10.542S16.822.458 11 .458.458 5.178.458 11 5.178 21.542 11 21.542z"/><path id="as" d="M23 46c12.703 0 23-10.297 23-23S35.703 0 23 0 0 10.297 0 23s10.297 23 23 23z"/><path id="au" d="M23 46c12.703 0 23-10.297 23-23S35.703 0 23 0 0 10.297 0 23s10.297 23 23 23z"/><path id="aw" d="M33.194 5.953A21.983 21.983 0 0 1 17 13.043 21.983 21.983 0 0 1 .785 5.93c1.237-2.347 3.46-4.197 6-4.708 0 0 3.178-.98 10.2-1.215 7.02.235 10.2 1.215 10.2 1.215 2.545.513 4.775 2.373 6.01 4.73z"/><path id="ay" d="M23 45.042c12.173 0 22.042-9.87 22.042-22.042C45.042 10.827 35.172.958 23 .958 10.827.958.958 10.828.958 23c0 12.173 9.87 22.042 22.042 22.042z"/><path id="aA" d="M8.984 20c6.95 0 8.11-4.56 8.11-10.423 0-5.862-3.442-9.12-8.11-9.12-4.425 0-8.11 3.258-8.11 9.12C.874 15.44 2.032 20 8.984 20z"/><path id="aC" d="M23 45.042c12.173 0 22.042-9.87 22.042-22.042C45.042 10.827 35.172.958 23 .958 10.827.958.958 10.828.958 23c0 12.173 9.87 22.042 22.042 22.042z"/><path id="aE" d="M16 32c8.837 0 16-7.163 16-16S24.837 0 16 0 0 7.163 0 16s7.163 16 16 16z"/><path id="aG" d="M16 32c8.837 0 16-7.163 16-16S24.837 0 16 0 0 7.163 0 16s7.163 16 16 16z"/><path id="aI" d="M23.266 4.402A15.292 15.292 0 0 1 12 9.332 15.292 15.292 0 0 1 .72 4.387c.86-1.633 2.408-2.92 4.173-3.275 0 0 2.21-.68 7.096-.844 4.883.163 7.094.845 7.094.845 1.772.358 3.323 1.65 4.182 3.292z"/><path id="aK" d="M16 31.333c8.468 0 15.333-6.865 15.333-15.333S24.468.667 16 .667.667 7.532.667 16 7.532 31.333 16 31.333z"/><path id="aM" d="M5.99 14.26c4.835 0 5.64-3.172 5.64-7.25 0-4.078-2.394-6.343-5.64-6.343C2.91.667.346 2.932.346 7.01c0 4.078.806 7.25 5.642 7.25z"/><path id="aO" d="M16 31.333c8.468 0 15.333-6.865 15.333-15.333S24.468.667 16 .667.667 7.532.667 16 7.532 31.333 16 31.333z"/><path id="aQ" d="M12 24c6.627 0 12-5.373 12-12S18.627 0 12 0 0 5.373 0 12s5.373 12 12 12z"/><path id="aS" d="M12 24c6.627 0 12-5.373 12-12S18.627 0 12 0 0 5.373 0 12s5.373 12 12 12z"/><path id="aU" d="M17.45 3.8A11.47 11.47 0 0 1 9 7.5 11.47 11.47 0 0 1 .54 3.79c.645-1.225 1.806-2.19 3.13-2.457 0 0 1.658-.51 5.322-.634 3.663.122 5.32.633 5.32.633 1.33.268 2.493 1.238 3.137 2.468z"/><path id="aW" d="M12 23.5c6.35 0 11.5-5.15 11.5-11.5S18.35.5 12 .5.5 5.65.5 12 5.65 23.5 12 23.5z"/><path id="aY" d="M4.992 10.695c3.626 0 4.23-2.38 4.23-5.437C9.223 2.198 7.428.5 4.993.5 2.682.5.76 2.2.76 5.258s.605 5.437 4.232 5.437z"/><path id="ba" d="M12 23.5c6.35 0 11.5-5.15 11.5-11.5S18.35.5 12 .5.5 5.65.5 12 5.65 23.5 12 23.5z"/><path id="bc" d="M.75 3.995A3.248 3.248 0 0 1 3.998.75H98c1.798 0 3.25 1.45 3.25 3.245v72.01A3.248 3.248 0 0 1 98 79.25H4a3.243 3.243 0 0 1-3.25-3.245V3.995z"/><path id="be" d="M0 3.995A3.998 3.998 0 0 1 3.998 0H98c2.21 0 4 1.783 4 3.995v72.01A3.998 3.998 0 0 1 98 80H4c-2.21 0-4-1.783-4-3.995V3.995z"/><path id="bg" d="M0 1.998A2 2 0 0 1 1.992 0h41.016C44.108 0 45 .898 45 1.998v2.004A2 2 0 0 1 43.008 6H1.992C.892 6 0 5.102 0 4.002V1.998z"/><path id="bi" d="M0 1.998C0 .894.902 0 1.998 0h30.404A2 2 0 0 1 34.4 1.998v2.004A2.003 2.003 0 0 1 32.402 6H1.998A2 2 0 0 1 0 4.002V1.998z"/><path id="bk" d="M0 1.998C0 .894.905 0 2.003 0h59.994C63.103 0 64 .898 64 1.998v2.004A2.006 2.006 0 0 1 61.997 6H2.003A2.003 2.003 0 0 1 0 4.002V1.998z"/><path id="bm" d="M0 1.998A2 2 0 0 1 2.007 0h77.986C81.103 0 82 .898 82 1.998v2.004A2 2 0 0 1 79.993 6H2.007A2.005 2.005 0 0 1 0 4.002V1.998z"/><path id="bo" d="M24.89 12.556C24.89 19.428 19.316 25 12.443 25 5.572 25 0 19.428 0 12.556 0 5.683 5.572.11 12.444.11v12.446H24.89z"/><path id="bq" d="M13 12.444C13 5.572 7.428 0 .556 0v12.444H13z"/><path id="bs" d="M.75 4A3.25 3.25 0 0 1 3.99.75h93.02c1.79 0 3.24 1.455 3.24 3.25v117a3.25 3.25 0 0 1-3.24 3.25H3.99A3.245 3.245 0 0 1 .75 121V4z"/><path id="bu" d="M0 4a4 4 0 0 1 3.99-4h93.02C99.213 0 101 1.79 101 4v117a4 4 0 0 1-3.99 4H3.99A3.995 3.995 0 0 1 0 121V4z"/><path id="bw" d="M0 1.998A2 2 0 0 1 2.002 0h38.996C42.104 0 43 .898 43 1.998v2.004A2 2 0 0 1 40.998 6H2.002A2.002 2.002 0 0 1 0 4.002V1.998z"/><path id="by" d="M0 1.998C0 .894.893 0 2.002 0h29.396C32.504 0 33.4.898 33.4 1.998v2.004A1.998 1.998 0 0 1 31.398 6H2.002A2.002 2.002 0 0 1 0 4.002V1.998z"/><path id="bA" d="M0 1.998C0 .894.9 0 2 0h32.472a2 2 0 0 1 2 1.998v2.004a2.003 2.003 0 0 1-2 1.998H2a2 2 0 0 1-2-1.998V1.998z"/><path id="bC" d="M0 1.998A2 2 0 0 1 2.002 0h76.996C80.104 0 81 .898 81 1.998v2.004A2 2 0 0 1 78.998 6H2.002A2.003 2.003 0 0 1 0 4.002V1.998z"/><path id="bE" d="M0 1.998C0 .894.886 0 1.998 0h60.404A2 2 0 0 1 64.4 1.998v2.004A1.992 1.992 0 0 1 62.402 6H1.998A2 2 0 0 1 0 4.002V1.998z"/><path id="bG" d="M0 1.998C0 .894.89 0 1.992 0h66.345c1.1 0 1.992.898 1.992 1.998v2.004C70.33 5.106 69.44 6 68.336 6H1.99C.894 6 .002 5.102.002 4.002V1.998z"/><path id="bI" d="M0 1.998C0 .894.886 0 1.998 0h60.404A2 2 0 0 1 64.4 1.998v2.004A1.992 1.992 0 0 1 62.402 6H1.998A2 2 0 0 1 0 4.002V1.998z"/><path id="bK" d="M0 1.998C0 .894.89 0 1.992 0h66.345c1.1 0 1.992.898 1.992 1.998v2.004C70.33 5.106 69.44 6 68.336 6H1.99C.894 6 .002 5.102.002 4.002V1.998z"/><path id="bM" d="M0 1C0 .45.44 0 .997 0h26.006c.55 0 .997.448.997 1v22c0 .552-.44 1-.997 1H.997A.998.998 0 0 1 0 23V1z"/><path id="bO" d="M0 0h24v20H0V0z"/><path id="bQ" d="M0 17.596V20h23.407c-.57-1.23-2.908-6-4.828-6-2.205 0-2.756 2.555-5.756 2.555-3 0-5.77-6.58-7.445-6.58-1.14 0-3.796 3.18-5.38 5.217V20h24V0H0v17.596z"/><path id="bS" d="M3.375 6.43c1.52 0 2.755-1.28 2.755-2.86C6.13 1.995 4.896.715 3.375.715 1.855.714.62 1.994.62 3.57c0 1.58 1.234 2.86 2.755 2.86z"/><path id="bU" d="M0 9c0-4.97 4.025-9 9.01-9h53.98C67.966 0 72 4.028 72 9c0 4.97-4.025 9-9.01 9H9.01C4.034 18 0 13.972 0 9z"/><path d="M8.024 9V2.367H8L5.29 9H4.38L1.638 2.408h-.035V9H.308V.598H2.3l2.543 6.316h.035L7.498.598h1.91V9H8.023zm6.48 0v-.826h-.023c-.417.648-1.008.973-1.774.973-.59 0-1.055-.16-1.394-.48-.34-.32-.51-.755-.51-1.302 0-.562.166-1.013.498-1.353.332-.34.82-.55 1.465-.633l1.752-.24c0-.818-.38-1.226-1.137-1.226-.367 0-.724.06-1.07.182-.345.12-.653.283-.922.486V3.387c.214-.137.538-.26.97-.37.43-.11.82-.163 1.162-.163.77 0 1.35.2 1.738.6.39.4.583.982.583 1.743V9h-1.335zm-2.372-1.775a.76.76 0 0 0 .28.618c.19.154.427.23.716.23.402 0 .734-.137.996-.412.262-.274.393-.62.393-1.04v-.538l-1.295.17c-.41.06-.695.16-.853.305-.16.144-.238.367-.238.668zm8.654-2.907a1.108 1.108 0 0 0-.346-.14 1.71 1.71 0 0 0-.44-.065c-.394 0-.712.168-.954.504-.242.336-.363.774-.363 1.313V9H17.33V3h1.353v1.166h.023c.133-.402.334-.715.604-.938.27-.222.58-.334.93-.334.236 0 .417.028.546.083v1.34zM25.444 9L23.09 6.117h-.025V9h-1.353V.117h1.353v5.62h.024L25.32 3h1.718l-2.566 2.865L27.232 9h-1.788zm3.23-2.602c.026.547.192.963.497 1.248.306.286.74.428 1.307.428a3.163 3.163 0 0 0 1.8-.574v1.143c-.227.148-.532.27-.915.363-.382.094-.787.14-1.213.14-.91 0-1.616-.272-2.116-.817-.5-.546-.75-1.303-.75-2.27 0-.642.124-1.203.372-1.683a2.77 2.77 0 0 1 1.032-1.122c.44-.268.922-.4 1.45-.4.828-.002 1.47.252 1.93.76.46.508.69 1.21.69 2.11v.673h-4.085zm2.735-1.02c0-.476-.112-.84-.335-1.09-.223-.25-.535-.374-.937-.374a1.3 1.3 0 0 0-.955.407c-.27.273-.44.625-.51 1.06h2.736zm5.747 3.563a1.68 1.68 0 0 1-.436.14c-.208.044-.41.066-.606.066-1.175 0-1.763-.632-1.763-1.898V4.09h-.995V3h.996V1.617l1.36-.416V3h1.447v1.09H35.71v2.906c0 .38.068.648.205.806.137.158.352.237.645.237.078 0 .176-.017.295-.05.12-.034.22-.078.302-.133V8.94zm2.72-8.06c0 .222-.082.407-.244.555a.84.84 0 0 1-.59.223.83.83 0 0 1-.585-.222.727.727 0 0 1-.24-.557c0-.228.08-.417.243-.57a.822.822 0 0 1 .584-.228c.238 0 .437.078.595.234a.763.763 0 0 1 .236.563zM38.35 9V3h1.354v6h-1.354zm7.108 0V5.63c0-.562-.095-.98-.284-1.256-.19-.275-.495-.413-.917-.413-.41 0-.75.156-1.018.467-.267.31-.4.698-.4 1.163V9h-1.355V3h1.354v.96h.024c.45-.737 1.098-1.107 1.946-1.107.636 0 1.13.204 1.48.61.35.406.523 1.023.523 1.85v3.687H45.46zm8.373-.563c0 1.09-.292 1.926-.876 2.508-.584.582-1.42.873-2.505.873-.363 0-.73-.036-1.1-.108-.368-.072-.662-.163-.88-.273v-1.27c.39.214.737.36 1.04.44.303.082.608.122.917.122.66-.002 1.166-.18 1.52-.538.353-.357.53-.877.53-1.56v-.58h-.024c-.21.343-.472.61-.782.804-.31.194-.706.29-1.187.29-.75 0-1.35-.268-1.804-.805-.453-.536-.68-1.248-.68-2.135 0-1.03.247-1.848.74-2.45.495-.6 1.164-.9 2.008-.9.763-.002 1.33.295 1.706.89h.023V3h1.353v5.438zm-1.342-2.93c0-.43-.14-.794-.42-1.095-.282-.3-.63-.45-1.044-.45-.515 0-.914.185-1.195.558-.28.374-.42.916-.42 1.627 0 .578.137 1.038.412 1.38.276.34.642.512 1.1.512.46 0 .837-.175 1.13-.522.293-.348.44-.793.44-1.336v-.674z" id="bW"/><path id="bY" d="M0 9c0-4.97 4.03-9 9.004-9h46.992C60.97 0 65 4.028 65 9c0 4.97-4.03 9-9.004 9H9.004C4.03 18 0 13.972 0 9z"/><path d="M6.88 9l-.767-2.12H2.75L2.018 9H.494L3.676.598h1.547L8.416 9H6.88zM4.444 2.12h-.035L3.138 5.7h2.577L4.443 2.12zM13.303 9V5.63c0-.562-.095-.98-.284-1.256-.19-.275-.497-.413-.918-.413-.41 0-.75.156-1.017.467-.268.31-.4.698-.4 1.163V9H9.33V3h1.354v.96h.023c.45-.737 1.098-1.107 1.945-1.107.637 0 1.13.204 1.48.61.35.406.524 1.023.524 1.85v3.687h-1.353zm6.164 0v-.826h-.024c-.418.648-1.01.973-1.775.973-.59 0-1.055-.16-1.395-.48-.34-.32-.51-.755-.51-1.302 0-.562.167-1.013.5-1.353.33-.34.82-.55 1.464-.633l1.752-.24c0-.818-.38-1.226-1.138-1.226-.367 0-.724.06-1.07.182-.345.12-.653.283-.922.486V3.387c.214-.137.538-.26.97-.37.43-.11.82-.163 1.162-.163.77 0 1.35.2 1.738.6.388.4.583.982.583 1.743V9h-1.336zm-2.373-1.775a.76.76 0 0 0 .28.618c.19.154.427.23.716.23.402 0 .734-.137.996-.412.262-.274.393-.62.393-1.04v-.538l-1.296.17c-.41.06-.695.16-.853.305-.157.144-.236.367-.236.668zM22.29 9V.117h1.355V9H22.29zm3.353 2.818a3.09 3.09 0 0 1-.832-.093V10.57c.215.098.436.147.663.147.48 0 .832-.256 1.054-.768l.41-.95-2.402-6h1.524l1.54 4.635h.023L29.217 3h1.377l-2.602 6.72c-.273.727-.605 1.258-.996 1.595-.39.335-.842.503-1.353.503zm9.035-2.877a1.682 1.682 0 0 1-.437.14c-.208.044-.41.066-.605.066-1.176 0-1.764-.632-1.764-1.898V4.09h-.995V3h.996V1.617l1.36-.416V3h1.448v1.09H33.23v2.906c0 .38.07.648.206.806.136.158.35.237.644.237.078 0 .177-.017.296-.05.12-.034.22-.078.302-.133V8.94zm2.72-8.06c-.002.222-.083.407-.245.555a.84.84 0 0 1-.588.223.83.83 0 0 1-.587-.222.727.727 0 0 1-.24-.557c0-.228.08-.417.243-.57a.822.822 0 0 1 .585-.228c.238 0 .436.078.594.234a.763.763 0 0 1 .237.563zM35.872 9V3h1.354v6h-1.354zm7.37-.252c-.46.266-1.028.4-1.704.4-.58-.002-1.094-.127-1.545-.377a2.64 2.64 0 0 1-1.055-1.065 3.172 3.172 0 0 1-.377-1.547c0-.652.13-1.228.39-1.728s.636-.888 1.13-1.163c.494-.276 1.067-.413 1.72-.413.254 0 .517.028.79.084.274.057.49.13.65.22V4.44c-.44-.32-.9-.48-1.382-.48-.56 0-1.017.19-1.367.566-.35.377-.524.88-.524 1.51 0 .624.167 1.114.503 1.47.336.355.79.533 1.365.533.207 0 .44-.046.697-.136.258-.09.494-.213.71-.37V8.75zm4.923-1.465c0 .56-.215 1.01-.644 1.35-.43.343-1.012.514-1.747.514-.238 0-.508-.032-.81-.094a3.537 3.537 0 0 1-.76-.235V7.523c.25.18.523.32.82.417a2.6 2.6 0 0 0 .803.146c.65 0 .973-.215.973-.645a.625.625 0 0 0-.096-.365 1.043 1.043 0 0 0-.334-.275 6.547 6.547 0 0 0-.735-.343c-.39-.168-.68-.33-.87-.486-.19-.155-.33-.34-.422-.55a1.837 1.837 0 0 1-.138-.738c0-.54.213-.98.64-1.32.425-.34.975-.51 1.65-.51.208.002.444.026.707.075.264.05.478.108.642.18v1.223a2.383 2.383 0 0 0-.65-.302 2.542 2.542 0 0 0-.745-.114c-.27 0-.483.06-.64.182a.56.56 0 0 0-.234.463c0 .21.062.375.185.494.124.12.414.27.87.454.563.226.96.478 1.19.756.23.277.346.617.346 1.02z" id="ca"/><path id="cc" d="M0 9c0-4.97 4.026-9 9-9h25a9 9 0 0 1 9 9c0 4.97-4.026 9-9 9H9a9 9 0 0 1-9-9z"/><path d="M5.62 3.205c0 .53-.132 1.01-.397 1.433a2.65 2.65 0 0 1-1.13.987c-.49.234-1.048.352-1.677.352H1.42V9H.025V.598H2.62c.966 0 1.707.224 2.225.673.517.45.776 1.095.776 1.935zm-1.464.047c0-.473-.15-.837-.454-1.093-.303-.257-.743-.385-1.32-.385H1.42V4.8h.896c.58 0 1.03-.132 1.354-.394.324-.26.486-.646.486-1.154zm6.123 1.066a1.108 1.108 0 0 0-.346-.14 1.708 1.708 0 0 0-.44-.065c-.394 0-.713.168-.955.504-.243.336-.364.774-.364 1.313V9H6.822V3h1.354v1.166H8.2c.132-.402.333-.715.603-.937.27-.224.58-.335.93-.335.236 0 .417.027.546.082v1.34zm1.652 2.08c.027.547.193.963.498 1.248.304.286.74.428 1.306.428a3.166 3.166 0 0 0 1.8-.574v1.143c-.227.148-.532.27-.915.363-.382.094-.786.14-1.212.14-.91 0-1.615-.272-2.115-.817-.5-.546-.75-1.303-.75-2.27 0-.642.124-1.203.372-1.683a2.77 2.77 0 0 1 1.03-1.122c.44-.268.924-.4 1.45-.4.83 0 1.473.252 1.932.76.46.508.69 1.21.69 2.11v.673H11.93zm2.736-1.02c0-.476-.11-.84-.334-1.09-.223-.25-.535-.374-.938-.374a1.3 1.3 0 0 0-.955.407c-.268.273-.438.625-.508 1.06h2.736zm6.158 1.905c0 .56-.215 1.01-.644 1.35-.43.343-1.012.513-1.746.513-.24 0-.51-.03-.812-.093a3.538 3.538 0 0 1-.76-.235V7.523c.25.18.525.32.822.416.296.097.564.146.802.146.65 0 .973-.215.973-.645a.626.626 0 0 0-.096-.365 1.043 1.043 0 0 0-.334-.275 6.53 6.53 0 0 0-.735-.343c-.39-.168-.68-.33-.87-.486a1.47 1.47 0 0 1-.422-.55 1.837 1.837 0 0 1-.138-.738c0-.54.213-.98.64-1.32.425-.34.976-.508 1.65-.508.208 0 .444.024.707.073.264.05.478.108.642.178V4.33a2.382 2.382 0 0 0-.65-.302 2.543 2.543 0 0 0-.745-.114c-.27 0-.483.06-.64.182a.562.562 0 0 0-.234.463c0 .21.062.375.185.494.124.12.414.27.87.454.564.226.96.478 1.19.756.23.277.346.617.346 1.02zm4.828 0c0 .56-.215 1.01-.644 1.35-.43.343-1.012.513-1.746.513-.24 0-.51-.03-.812-.093a3.535 3.535 0 0 1-.76-.235V7.523c.25.18.525.32.822.416.297.097.564.146.802.146.65 0 .973-.215.973-.645a.626.626 0 0 0-.098-.365 1.043 1.043 0 0 0-.334-.275 6.53 6.53 0 0 0-.735-.343c-.39-.168-.68-.33-.87-.486a1.47 1.47 0 0 1-.422-.55 1.837 1.837 0 0 1-.137-.738c0-.54.213-.98.64-1.32.425-.34.976-.508 1.65-.508.208 0 .444.024.707.073.264.05.478.108.642.178V4.33a2.382 2.382 0 0 0-.65-.302 2.543 2.543 0 0 0-.744-.114c-.27 0-.483.06-.64.182a.56.56 0 0 0-.233.463c0 .21.06.375.184.494.122.12.412.27.87.454.562.226.958.478 1.19.756.23.277.344.617.344 1.02z" id="ce"/><path id="cg" d="M0 9a9 9 0 0 1 9.003-9h70.994C84.97 0 89 4.028 89 9a9 9 0 0 1-9.003 9H9.003C4.03 18 0 13.972 0 9z"/><path d="M7.328 4.693c0 .856-.186 1.61-.56 2.262a3.783 3.783 0 0 1-1.602 1.512C4.47 8.822 3.67 9 2.764 9H.232V.598h2.596c1.5 0 2.625.347 3.375 1.043s1.125 1.714 1.125 3.053zm-1.476.024c0-.942-.268-1.663-.803-2.165C4.513 2.05 3.755 1.8 2.774 1.8H1.627v6h1.125c.98 0 1.742-.274 2.285-.82.543-.544.815-1.298.815-2.263zm3.78 1.68c.026.548.192.964.497 1.25.304.285.74.427 1.306.427a3.163 3.163 0 0 0 1.8-.574l-.002 1.143c-.226.148-.53.27-.914.363-.383.094-.787.14-1.213.14-.91 0-1.615-.272-2.115-.817-.5-.546-.75-1.303-.75-2.27 0-.642.124-1.203.372-1.683a2.77 2.77 0 0 1 1.032-1.122c.44-.268.922-.4 1.45-.4.828-.002 1.47.252 1.93.76.46.508.69 1.21.69 2.11v.673H9.63zm2.735-1.018c0-.478-.11-.84-.334-1.09-.222-.25-.535-.376-.937-.376a1.3 1.3 0 0 0-.955.407c-.27.273-.44.625-.51 1.06h2.737zM17.747 9h-1.454l-2.22-6h1.488l1.506 4.676h.024L18.643 3h1.43l-2.327 6zM21.8 6.398c.028.547.194.963.5 1.248.304.286.74.428 1.305.428a3.163 3.163 0 0 0 1.8-.574v1.143c-.227.148-.532.27-.915.363-.383.094-.787.14-1.213.14-.91 0-1.615-.272-2.115-.817-.5-.546-.75-1.303-.75-2.27 0-.642.124-1.203.372-1.683a2.77 2.77 0 0 1 1.03-1.122c.44-.268.924-.4 1.452-.4.828-.002 1.47.252 1.93.76.46.508.69 1.21.69 2.11v.673H21.8zm2.737-1.02c0-.476-.11-.84-.334-1.09-.223-.25-.535-.374-.937-.374a1.3 1.3 0 0 0-.955.407c-.27.273-.44.625-.51 1.06h2.737zM27.12 9V.117h1.355V9H27.12zm8.86-3.06c0 .974-.28 1.75-.843 2.333-.563.582-1.326.873-2.29.873-.927 0-1.664-.276-2.213-.83-.55-.55-.823-1.3-.823-2.246 0-.996.282-1.78.844-2.355.563-.574 1.342-.86 2.338-.86.938-.002 1.67.273 2.197.822.527.55.79 1.304.79 2.264zm-1.406.048c0-.664-.147-1.168-.442-1.51-.295-.345-.7-.517-1.216-.517-.53 0-.947.18-1.248.54-.3.36-.45.867-.45 1.523 0 .637.15 1.132.45 1.486.3.352.72.53 1.26.53.543 0 .953-.175 1.23-.522.278-.348.416-.858.416-1.53zm8.584-.146c0 1.008-.248 1.81-.744 2.408-.496.598-1.168.896-2.016.896-.726 0-1.29-.3-1.693-.902h-.023v3.516h-1.354V3h1.354v.96h.023c.477-.737 1.14-1.107 1.992-1.107.766 0 1.367.268 1.805.803.437.535.656 1.264.656 2.186zm-1.406-.024c0-.578-.132-1.032-.396-1.362-.263-.33-.63-.495-1.104-.495-.473 0-.855.167-1.146.5-.29.33-.436.76-.436 1.288v.768c0 .44.14.805.416 1.092.277.288.623.43 1.037.43.516 0 .916-.19 1.2-.573.286-.383.43-.932.43-1.647zM52.1 9V5.613c0-.578-.09-.998-.27-1.26-.18-.26-.486-.392-.92-.392-.355 0-.654.163-.896.487-.243.324-.364.72-.364 1.184V9h-1.353V5.496c0-1.023-.393-1.535-1.178-1.535-.376 0-.68.156-.912.467-.232.31-.35.712-.35 1.204V9h-1.352V3h1.353v.926h.023c.426-.715 1.058-1.073 1.898-1.073.404 0 .756.104 1.06.31.302.208.517.497.646.868.243-.41.53-.708.86-.895.33-.188.715-.28 1.156-.28.637-.002 1.122.192 1.456.58.334.385.5 1.004.5 1.856V9H52.1zm3.96-2.602c.028.547.194.963.5 1.248.303.286.74.428 1.305.428a3.163 3.163 0 0 0 1.8-.574v1.143c-.227.148-.532.27-.915.363-.383.094-.787.14-1.213.14-.91 0-1.615-.272-2.115-.817-.5-.546-.75-1.303-.75-2.27 0-.642.124-1.203.372-1.683a2.77 2.77 0 0 1 1.03-1.122c.44-.268.924-.4 1.45-.4.83-.002 1.473.252 1.932.76.46.508.69 1.21.69 2.11v.673H56.06zm2.737-1.02c0-.476-.11-.84-.334-1.09-.223-.25-.535-.374-.938-.374a1.3 1.3 0 0 0-.955.407c-.27.273-.44.625-.51 1.06h2.737zM65.354 9V5.63c0-.562-.095-.98-.285-1.256-.19-.275-.496-.413-.918-.413-.41 0-.75.156-1.016.467-.268.31-.402.698-.402 1.163V9H61.38V3h1.354v.96h.024c.45-.737 1.097-1.107 1.945-1.107.637 0 1.13.204 1.48.61.35.406.524 1.023.524 1.85v3.687h-1.353zm6.152-.06a1.682 1.682 0 0 1-.437.14c-.21.044-.412.066-.607.066-1.176 0-1.764-.632-1.764-1.898V4.09h-.997V3h.996V1.617l1.36-.416V3h1.446v1.09H70.06v2.906c0 .38.067.648.204.806.136.158.35.237.644.237.078 0 .177-.017.296-.05.12-.034.22-.078.302-.133V8.94z" id="ci"/><path id="ck" d="M.75 3.995A3.25 3.25 0 0 1 3.998.75h237.004a3.243 3.243 0 0 1 3.248 3.245v72.01a3.25 3.25 0 0 1-3.248 3.245H3.998A3.243 3.243 0 0 1 .75 76.005V3.995z"/><path id="cm" d="M0 3.995A4 4 0 0 1 3.998 0h237.004A3.993 3.993 0 0 1 245 3.995v72.01A4 4 0 0 1 241.002 80H3.998A3.993 3.993 0 0 1 0 76.005V3.995z"/><path d="M.5 1.002c0-.68.189-.767.712-.325l60.93 51.41c.49.413.49.413-.145.413H2.003A1.5 1.5 0 0 1 .5 50.998V1.002zm8 19.29V42.04c0 .9.72 1.626 1.615 1.626h25.77c1.074 0 1.408-.908.587-1.61L10.18 19.517c-.804-.688-1.68-.276-1.68.773z" id="co"/><path d="M0 2.002C0 .896.686.58 1.535 1.295l60.93 51.41c.848.715.63 1.295-.468 1.295H2.003A2 2 0 0 1 0 51.998V2.002zm9 19.29c0-.622.375-.805.853-.395l26.294 22.538c.47.404.343.73-.262.73h-25.77A1.12 1.12 0 0 1 9 43.042V21.29z" id="cq"/><path id="cs" d="M0 0h1v2H0V0z"/><path id="cu" d="M0 0h1v2H0V0z"/><path id="cw" d="M0 0h1v2H0V0z"/><path id="cy" d="M0 0h1v2H0V0z"/><path id="cA" d="M0 0h1v2H0V0z"/><path id="cC" d="M0 0h1v2H0V0z"/><path id="cE" d="M0 0h1v2H0V0z"/><path id="cG" d="M0 0h1v2H0V0z"/><path id="cI" d="M0 0h1v2H0V0z"/><path id="cK" d="M0 0h1v2H0V0z"/><path id="cM" d="M0 0h1v2H0V0z"/><path id="cO" d="M3.177 42.006l7.684-5.79-.18.27 8.423-31.44a2.003 2.003 0 0 0-1.417-2.442l-6.76-1.81a2.002 2.002 0 0 0-2.448 1.405L.054 33.637l-.023-.325 3.76 8.857-.1.075-.464-.125-.05-.114z"/><path id="cQ" d="M8.995 2.07a2.502 2.502 0 0 1 3.06-1.76l6.76 1.81a2.503 2.503 0 0 1 1.77 3.056l-8.423 31.439-7.784 5.865L.57 33.51 8.996 2.07z"/><path id="cS" d="M1.478 2.398A2.502 2.502 0 0 1 4.536.636L9.37 1.93a2.496 2.496 0 0 1 1.767 3.056l-1.342 5.01-9.66-2.588 1.343-5.01z"/><path id="cU" d="M1.478 2.398A2.502 2.502 0 0 1 4.536.636L9.37 1.93a2.496 2.496 0 0 1 1.767 3.056l-1.342 5.01-9.66-2.588 1.343-5.01z"/><path id="cW" d="M2.538.58a1.216 1.216 0 0 1 1.69.453l1.138 2.03 2-1.19a1.215 1.215 0 0 1 1.69.454l1.14 2.03-7.15 7.36-2.51-9.95L2.54.58z"/><path id="cY" d="M.626.36l4.83 1.294-3.41 3.062L.627.36z"/><path id="da" d="M1.798.935l9.66 2.588-.995 3.71-9.66-2.59L1.8.936z"/><path id="dc" d="M.5 1C.5.728.728.5.995.5h8.01C9.28.5 9.5.72 9.5 1v51c0 .273-.228.5-.495.5H.995A.494.494 0 0 1 .5 52V1z"/><path id="de" d="M0 1c0-.552.456-1 .995-1h8.01c.55 0 .995.442.995 1v51c0 .552-.456 1-.995 1H.995A.994.994 0 0 1 0 52V1z"/><path id="dg" d="M2 0v1H0V0h2z"/><path id="di" d="M2 0v1H0V0h2z"/><path id="dk" d="M2 0v1H0V0h2z"/><path id="dm" d="M2 0v1H0V0h2z"/><path id="do" d="M2 0v1H0V0h2z"/><path id="dq" d="M2 0v1H0V0h2z"/><path id="ds" d="M2 0v1H0V0h2z"/><path id="du" d="M2 0v1H0V0h2z"/><path id="dw" d="M2 0v1H0V0h2z"/><path id="dy" d="M.5 2v22c0 .828.67 1.5 1.496 1.5h26.007c.832 0 1.497-.67 1.497-1.5V2c0-.828-.67-1.5-1.497-1.5H1.997C1.165.5.5 1.17.5 2z"/><path id="dA" d="M0 0h24v20H0V0z"/><path id="dC" d="M0 17.596V20h23.407c-.57-1.23-2.908-6-4.828-6-2.205 0-2.756 2.555-5.756 2.555-3 0-5.77-6.58-7.445-6.58-1.14 0-3.796 3.18-5.38 5.217V20h24V0H0v17.596z"/><path id="dE" d="M3.375 6.43c1.52 0 2.755-1.28 2.755-2.86C6.13 1.995 4.896.715 3.375.715 1.855.714.62 1.994.62 3.57c0 1.58 1.234 2.86 2.755 2.86z"/><path id="dG" d="M.147 9.128l5.694 21.25a1.498 1.498 0 0 0 1.835 1.062l25.12-6.732a1.495 1.495 0 0 0 1.058-1.836L28.16 1.622A1.498 1.498 0 0 0 26.324.56L1.205 7.29A1.495 1.495 0 0 0 .146 9.13z"/><path d="M.9 13.254L49.194.314 61.1 44.745l-48.295 12.94L.9 13.255zM14.63 22a.995.995 0 0 1 .704-1.226l25.12-6.73a.998.998 0 0 1 1.222.708l5.694 21.25a.995.995 0 0 1-.704 1.224l-25.12 6.73a.998.998 0 0 1-1.222-.708l-5.694-21.25z" id="dI"/><path id="dK" d="M.82 6.447L24.004.235l5.176 19.318-23.183 6.212L.82 6.447z"/><path id="dM" d="M24.607 5.707l-22.61 6.058L.753 7.12C1.756 4.745 3.498.986 4.6.69 6.216.258 10.594 5.896 13.49 5.12c2.898-.776 2.77-3.387 4.898-3.957 1.854-.496 5.348 3.508 6.217 4.547z"/><path id="dO" d="M3.596 6.248c1.47-.394 2.33-1.95 1.92-3.473C5.11 1.25 3.587.335 2.117.728.647 1.122-.213 2.676.197 4.2c.408 1.525 1.93 2.44 3.4 2.048z"/><path id="dQ" d="M0 9c0-4.97 4.037-9 8.998-9h34.004A8.998 8.998 0 0 1 52 9c0 4.97-4.037 9-8.998 9H8.998A8.998 8.998 0 0 1 0 9z"/><path d="M7.652 4.693c0 .856-.186 1.61-.56 2.262A3.783 3.783 0 0 1 5.49 8.467C4.795 8.822 3.994 9 3.088 9H.558V.598H3.15c1.5 0 2.625.347 3.375 1.043s1.125 1.714 1.125 3.053zm-1.476.024c0-.942-.268-1.663-.803-2.165S4.08 1.8 3.1 1.8H1.95v6h1.126c.98 0 1.742-.274 2.285-.82.544-.544.816-1.298.816-2.263zm3.78 1.68c.026.548.192.964.497 1.25.305.285.74.427 1.307.427a3.163 3.163 0 0 0 1.8-.574v1.143c-.228.148-.533.27-.915.363-.383.094-.788.14-1.213.14-.91 0-1.616-.272-2.116-.817-.5-.546-.75-1.303-.75-2.27 0-.642.124-1.203.372-1.683A2.77 2.77 0 0 1 9.97 3.255c.44-.268.923-.4 1.45-.4.828-.002 1.472.252 1.93.76.46.508.69 1.21.69 2.11v.673H9.954zM12.69 5.38c0-.478-.11-.84-.333-1.09-.222-.25-.535-.376-.937-.376a1.3 1.3 0 0 0-.955.407c-.27.273-.44.625-.51 1.06h2.736zm6.16 1.903c0 .56-.215 1.01-.645 1.35-.43.343-1.012.514-1.746.514-.24 0-.51-.032-.813-.094a3.537 3.537 0 0 1-.758-.235V7.523c.25.18.522.32.82.417a2.6 2.6 0 0 0 .802.146c.648 0 .972-.215.972-.645a.626.626 0 0 0-.096-.365 1.043 1.043 0 0 0-.334-.275 6.547 6.547 0 0 0-.736-.343c-.39-.168-.68-.33-.87-.486-.19-.155-.33-.34-.422-.55a1.837 1.837 0 0 1-.137-.738c0-.54.212-.98.637-1.32.426-.34.977-.51 1.653-.51.207.002.442.026.706.075.263.05.477.108.64.18v1.223a2.382 2.382 0 0 0-.65-.302 2.542 2.542 0 0 0-.743-.114c-.27 0-.483.06-.64.182a.56.56 0 0 0-.233.463c0 .21.06.375.184.494.123.12.413.27.87.454.563.226.96.478 1.19.756.23.277.346.617.346 1.02zM21.627.88c0 .222-.08.407-.243.555a.84.84 0 0 1-.59.223.83.83 0 0 1-.585-.222.727.727 0 0 1-.24-.557c0-.228.08-.417.242-.57a.822.822 0 0 1 .583-.228c.238 0 .436.078.595.234a.762.762 0 0 1 .237.563zM20.104 9V3h1.353v6h-1.354zm8.52-.563c0 1.09-.293 1.926-.877 2.508-.584.582-1.42.873-2.505.873-.363 0-.73-.036-1.098-.108-.37-.072-.663-.163-.882-.273v-1.27c.39.214.737.36 1.04.44.303.082.608.122.917.122.66-.002 1.166-.18 1.52-.538.353-.357.53-.877.53-1.56v-.58h-.024c-.21.343-.472.61-.782.804-.31.194-.706.29-1.187.29-.75 0-1.35-.268-1.804-.805-.453-.536-.68-1.248-.68-2.135 0-1.03.247-1.848.74-2.45.495-.6 1.164-.9 2.008-.9.763-.002 1.33.295 1.706.89h.024V3h1.353v5.438zm-1.343-2.93c0-.43-.14-.794-.42-1.095-.282-.3-.63-.45-1.044-.45-.515 0-.914.185-1.195.558-.28.374-.42.916-.42 1.627 0 .578.137 1.038.412 1.38.276.34.642.512 1.1.512.46 0 .837-.175 1.13-.522.293-.348.44-.793.44-1.336v-.674zM34.39 9V5.63c0-.562-.096-.98-.285-1.256-.19-.275-.496-.413-.917-.413-.41 0-.75.156-1.017.467-.267.31-.4.698-.4 1.163V9h-1.354V3h1.354v.96h.023c.45-.737 1.098-1.107 1.945-1.107.637 0 1.13.204 1.48.61.35.406.524 1.023.524 1.85v3.687H34.39z" id="dS"/><path id="dU" d="M6.5 12.5a6 6 0 1 0 0-12 6 6 0 0 0 0 12z"/><path id="dW" d="M.5 1.997v6.006C.5 8.825 1.174 9.5 2 9.5h14c.83 0 1.5-.67 1.5-1.497V1.997C17.5 1.175 16.826.5 16 .5H2C1.17.5.5 1.17.5 1.997z"/><path d="M1 12.717v-.3l-.257.154.257.147zM1 1.583v-.3l-.257.146.257.153zm.243-.437L1.5 1.3V1l-.257.146zm9.27 5.563l.23.136V6.57l-.23.138zm.23.444l-.23.138.23.137v-.276zM1.5 12.7l-.257.154L1.5 13v-.3zm-1 .3a.5.5 0 0 0 .757.43l10-6a.5.5 0 0 0 0-.86l-10-6A.5.5 0 0 0 .5 1v12z" id="dY"/></defs><g fill="none" fill-rule="evenodd"><mask id="b" fill="#fff"><use xlink:href="#a"/></mask><path d="M0 3.995A3.997 3.997 0 0 1 4.006 0h94.988A3.997 3.997 0 0 1 103 3.995v72.01A3.997 3.997 0 0 1 98.994 80H4.006A3.997 3.997 0 0 1 0 76.005V3.995z" fill="#FFF" mask="url(#b)"/><mask id="d" fill="#fff"><use xlink:href="#c"/></mask><path d="M0 3.995A3.997 3.997 0 0 1 4.006 0h94.988A3.997 3.997 0 0 1 103 3.995v72.01A3.997 3.997 0 0 1 98.994 80H4.006A3.997 3.997 0 0 1 0 76.005V3.995z" stroke="#8F98BA" stroke-width="3" stroke-linecap="round" stroke-linejoin="round" mask="url(#d)"/><g transform="translate(1 1)"><mask id="f" fill="#fff"><use xlink:href="#e"/></mask><path d="M-6-5h121v20H-6V-5z" fill="#CAC0EE" mask="url(#f)"/></g><g transform="translate(9 18)"><mask id="h" fill="#fff"><use xlink:href="#g"/></mask><path d="M-5-5h86V7H-5V-5z" fill="#E4E5EB" mask="url(#h)"/></g><g transform="translate(9 24)"><mask id="j" fill="#fff"><use xlink:href="#i"/></mask><path d="M-5-5h52V7H-5V-5z" fill="#E4E5EB" mask="url(#j)"/></g><g transform="translate(9 36)"><mask id="l" fill="#fff"><use xlink:href="#k"/></mask><path d="M-5-5h72V7H-5V-5z" fill="#E4E5EB" mask="url(#l)"/></g><g transform="translate(9 42)"><mask id="n" fill="#fff"><use xlink:href="#m"/></mask><path d="M-5-5h30V7H-5V-5z" fill="#E4E5EB" mask="url(#n)"/></g><g transform="translate(9 30)"><mask id="p" fill="#fff"><use xlink:href="#o"/></mask><path d="M-5-5h72V7H-5V-5z" fill="#E4E5EB" mask="url(#p)"/></g><g transform="translate(15 47)"><mask id="r" fill="#fff"><use xlink:href="#q"/></mask><path d="M-5-5H6V9H-5V-5z" fill="#E4E5EB" mask="url(#r)"/></g><g transform="translate(9 48)"><mask id="t" fill="#fff"><use xlink:href="#s"/></mask><path d="M-5-5h15V7H-5V-5z" fill="#E4E5EB" mask="url(#t)"/></g><g transform="translate(88 4)"><mask id="v" fill="#fff"><use xlink:href="#u"/></mask><path d="M-5-5H9V9H-5V-5z" fill="#F3F9FF" mask="url(#v)"/></g><g transform="translate(94 4)"><mask id="x" fill="#fff"><use xlink:href="#w"/></mask><path d="M-5-5H9V9H-5V-5z" fill="#F3F9FF" mask="url(#x)"/></g><g transform="translate(10 106)"><mask id="z" fill="#fff"><use xlink:href="#y"/></mask><path d="M0 3.995A4 4 0 0 1 4 0h153c2.21 0 4 1.783 4 3.995v72.01A4 4 0 0 1 157 80H4c-2.21 0-4-1.783-4-3.995V3.995z" fill="#FFF" mask="url(#z)"/></g><g transform="translate(10 106)"><mask id="B" fill="#fff"><use xlink:href="#A"/></mask><path d="M0 3.995A4 4 0 0 1 4 0h153c2.21 0 4 1.783 4 3.995v72.01A4 4 0 0 1 157 80H4c-2.21 0-4-1.783-4-3.995V3.995z" stroke="#8F98BA" stroke-width="3" stroke-linecap="round" stroke-linejoin="round" mask="url(#B)"/></g><g transform="translate(11 108)"><mask id="D" fill="#fff"><use xlink:href="#C"/></mask><path d="M-6-5h169.5v86.5H-6V-5z" fill="#F3F9FF" mask="url(#D)"/></g><path d="M54 142l19.78 19.78" stroke="#CAC0EE" stroke-linecap="square"/><g transform="translate(49 138)"><mask id="F" fill="#fff"><use xlink:href="#E"/></mask><path d="M-5-5h16v16H-5V-5z" fill="#CAC0EE" mask="url(#F)"/></g><g stroke="#CAC0EE"><path d="M52 144a3 3 0 1 0 0-6 3 3 0 0 0 0 6z" stroke-linecap="round" stroke-linejoin="round"/><path d="M114.93 130.5h29.712M12.028 140.5h36.42M77 163l33.273-33.273" stroke-linecap="square"/></g><g transform="translate(108 128)"><mask id="H" fill="#fff"><use xlink:href="#G"/></mask><path d="M-5-5h16v16H-5V-5z" fill="#CAC0EE" mask="url(#H)"/></g><path d="M111 134a3 3 0 1 0 0-6 3 3 0 0 0 0 6z" stroke="#CAC0EE" stroke-linecap="round" stroke-linejoin="round"/><g transform="translate(73 158)"><mask id="J" fill="#fff"><use xlink:href="#I"/></mask><path d="M-5-5h16v16H-5V-5z" fill="#CAC0EE" mask="url(#J)"/></g><path d="M76 164a3 3 0 1 0 0-6 3 3 0 0 0 0 6z" stroke="#CAC0EE" stroke-linecap="round" stroke-linejoin="round"/><g transform="translate(143 128)"><mask id="L" fill="#fff"><use xlink:href="#K"/></mask><path d="M-5-5h16v16H-5V-5z" fill="#CAC0EE" mask="url(#L)"/></g><path d="M146 134a3 3 0 1 0 0-6 3 3 0 0 0 0 6z" stroke="#CAC0EE" stroke-linecap="round" stroke-linejoin="round"/><g transform="translate(0 212)"><mask id="N" fill="#fff"><use xlink:href="#M"/></mask><path d="M0 3.995A3.99 3.99 0 0 1 3.998 0h271.004A3.993 3.993 0 0 1 279 3.995v72.01A3.99 3.99 0 0 1 275.002 80H3.998A3.993 3.993 0 0 1 0 76.005V3.995z" fill="#FFF" mask="url(#N)"/></g><g transform="translate(0 212)"><mask id="P" fill="#fff"><use xlink:href="#O"/></mask><path d="M0 3.995A3.99 3.99 0 0 1 3.998 0h271.004A3.993 3.993 0 0 1 279 3.995v72.01A3.99 3.99 0 0 1 275.002 80H3.998A3.993 3.993 0 0 1 0 76.005V3.995z" stroke="#8F98BA" stroke-width="3" stroke-linecap="round" stroke-linejoin="round" mask="url(#P)"/></g><g transform="translate(84 282)"><mask id="R" fill="#fff"><use xlink:href="#Q"/></mask><path d="M-5-5h122v28H-5V-5z" fill="#6DB0EA" mask="url(#R)"/></g><g transform="translate(92 286)"><mask id="T" fill="#fff"><use xlink:href="#S"/></mask><path d="M-4.997-4.543H101.16V16.76H-4.996V-4.543z" fill="#FFFEFF" mask="url(#T)"/></g><g stroke="#E4E5EB" stroke-linecap="square"><path d="M64 243l15.5-7.5M96 234l22.5 12.5M151 257l31.5 9.5M197 267l32.5-22.5"/></g><g transform="translate(118 235)"><mask id="V" fill="#fff"><use xlink:href="#U"/></mask><path d="M18 36c9.94 0 18-8.06 18-18S27.94 0 18 0 0 8.06 0 18s8.06 18 18 18z" fill="#F3F9FF" mask="url(#V)"/></g><g transform="translate(118 235)"><mask id="X" fill="#fff"><use xlink:href="#W"/></mask><path d="M18 36c9.94 0 18-8.06 18-18S27.94 0 18 0 0 8.06 0 18s8.06 18 18 18z" stroke-opacity=".4" stroke="#6EB1EB" stroke-width="2" stroke-linecap="round" stroke-linejoin="round" mask="url(#X)"/></g><g transform="translate(123 260)"><mask id="Z" fill="#fff"><use xlink:href="#Y"/></mask><path d="M-5.5-4.95h36.975v27.08H-5.5V-4.95z" fill="#CCE7FF" mask="url(#Z)"/></g><g transform="translate(118 235)"><mask id="ab" fill="#fff"><use xlink:href="#aa"/></mask><path d="M25.97 26c3.04.612 5.505 3.68 5.505 6.84v1.79s-9.027 7.5-13.475 7.5c-4.543 0-13.5-7.5-13.5-7.5v-1.79c0-3.16 2.464-6.228 5.505-6.84 0 0 2.487-.767 7.982-.95 5.495.183 7.983.95 7.983.95z" stroke-opacity=".4" stroke="#83C1F6" stroke-linecap="round" stroke-linejoin="round" mask="url(#ab)"/></g><g transform="translate(129 244)"><mask id="ad" fill="#fff"><use xlink:href="#ac"/></mask><path d="M-4.36-4.25h22.694v25.292H-4.36V-4.25z" fill="#FFF" mask="url(#ad)"/></g><g transform="translate(118 235)"><mask id="af" fill="#fff"><use xlink:href="#ae"/></mask><path d="M17.987 25.042c5.44 0 6.347-3.568 6.347-8.156 0-4.587-2.693-7.136-6.347-7.136-3.462 0-6.347 2.55-6.347 7.136 0 4.588.907 8.156 6.347 8.156z" stroke-opacity=".4" stroke="#83C1F6" stroke-linecap="round" stroke-linejoin="round" mask="url(#af)"/></g><g transform="translate(78 224)"><mask id="ah" fill="#fff"><use xlink:href="#ag"/></mask><path d="M11 22c6.075 0 11-4.925 11-11S17.075 0 11 0 0 4.925 0 11s4.925 11 11 11z" fill="#F3F9FF" mask="url(#ah)"/></g><g transform="translate(78 224)"><mask id="aj" fill="#fff"><use xlink:href="#ai"/></mask><path d="M11 22c6.075 0 11-4.925 11-11S17.075 0 11 0 0 4.925 0 11s4.925 11 11 11z" stroke-opacity=".4" stroke="#6EB1EB" stroke-width="2" stroke-linecap="round" stroke-linejoin="round" mask="url(#aj)"/></g><g transform="translate(81 239)"><mask id="al" fill="#fff"><use xlink:href="#ak"/></mask><path d="M-5.25-4.692h26.485v20.438H-5.25V-4.692z" fill="#CCE7FF" mask="url(#al)"/></g><g transform="translate(78 224)"><mask id="an" fill="#fff"><use xlink:href="#am"/></mask><path d="M15.87 15.89c1.858.373 3.365 2.247 3.365 4.18v1.092S13.718 25.746 11 25.746c-2.777 0-8.25-4.584-8.25-4.584V20.07c0-1.933 1.506-3.807 3.364-4.18 0 0 1.52-.47 4.878-.582 3.358.112 4.88.58 4.88.58z" stroke-opacity=".4" stroke="#83C1F6" stroke-linecap="round" stroke-linejoin="round" mask="url(#an)"/></g><g transform="translate(85 229)"><mask id="ap" fill="#fff"><use xlink:href="#ao"/></mask><path d="M-4.886-4.042H12.87v19.346H-4.885V-4.042z" fill="#FFF" mask="url(#ap)"/></g><g transform="translate(78 224)"><mask id="ar" fill="#fff"><use xlink:href="#aq"/></mask><path d="M10.992 15.304c3.325 0 3.88-2.18 3.88-4.985 0-2.804-1.647-4.362-3.88-4.362-2.116 0-3.878 1.558-3.878 4.36 0 2.805.554 4.986 3.878 4.986z" stroke-opacity=".4" stroke="#83C1F6" stroke-linecap="round" stroke-linejoin="round" mask="url(#ar)"/></g><g transform="translate(24 231)"><mask id="at" fill="#fff"><use xlink:href="#as"/></mask><path d="M23 46c12.703 0 23-10.297 23-23S35.703 0 23 0 0 10.297 0 23s10.297 23 23 23z" fill="#F3F9FF" mask="url(#at)"/></g><g transform="translate(24 231)"><mask id="av" fill="#fff"><use xlink:href="#au"/></mask><path d="M23 46c12.703 0 23-10.297 23-23S35.703 0 23 0 0 10.297 0 23s10.297 23 23 23z" stroke-opacity=".4" stroke="#6EB1EB" stroke-width="2" stroke-linecap="round" stroke-linejoin="round" mask="url(#av)"/></g><g transform="translate(30 263)"><mask id="ax" fill="#fff"><use xlink:href="#aw"/></mask><path d="M-5.25-4.993h44.468v31.825H-5.25V-4.993z" fill="#CCE7FF" mask="url(#ax)"/></g><g transform="translate(24 231)"><mask id="az" fill="#fff"><use xlink:href="#ay"/></mask><path d="M33.184 33.222c3.885.782 7.034 4.7 7.034 8.74v2.287S28.684 53.83 23 53.83c-5.806 0-17.25-9.583-17.25-9.583V41.96c0-4.04 3.15-7.958 7.034-8.74 0 0 3.18-.98 10.2-1.215 7.02.235 10.2 1.215 10.2 1.215z" stroke-opacity=".4" stroke="#83C1F6" stroke-linecap="round" stroke-linejoin="round" mask="url(#az)"/></g><g transform="translate(38 243)"><mask id="aB" fill="#fff"><use xlink:href="#aA"/></mask><path d="M-4.126-4.542h26.22v29.54h-26.22V-4.54z" fill="#FFF" mask="url(#aB)"/></g><g transform="translate(24 231)"><mask id="aD" fill="#fff"><use xlink:href="#aC"/></mask><path d="M22.984 32c6.95 0 8.11-4.56 8.11-10.423 0-5.862-3.442-9.12-8.11-9.12-4.425 0-8.11 3.258-8.11 9.12 0 5.862 1.158 10.422 8.11 10.422z" stroke-opacity=".4" stroke="#83C1F6" stroke-linecap="round" stroke-linejoin="round" mask="url(#aD)"/></g><g transform="translate(223 226)"><mask id="aF" fill="#fff"><use xlink:href="#aE"/></mask><path d="M16 32c8.837 0 16-7.163 16-16S24.837 0 16 0 0 7.163 0 16s7.163 16 16 16z" fill="#F3F9FF" mask="url(#aF)"/></g><g transform="translate(223 226)"><mask id="aH" fill="#fff"><use xlink:href="#aG"/></mask><path d="M16 32c8.837 0 16-7.163 16-16S24.837 0 16 0 0 7.163 0 16s7.163 16 16 16z" stroke-opacity=".4" stroke="#6EB1EB" stroke-width="2" stroke-linecap="round" stroke-linejoin="round" mask="url(#aH)"/></g><g transform="translate(227 248)"><mask id="aJ" fill="#fff"><use xlink:href="#aI"/></mask><path d="M-5-4.734h33.977v25.182H-5V-4.734z" fill="#CCE7FF" mask="url(#aJ)"/></g><g transform="translate(223 226)"><mask id="aL" fill="#fff"><use xlink:href="#aK"/></mask><path d="M23.084 23.11c2.703.545 4.893 3.272 4.893 6.08v1.592S19.954 37.448 16 37.448c-4.04 0-12-6.666-12-6.666v-1.59c0-2.81 2.19-5.537 4.893-6.08 0 0 2.21-.683 7.096-.846 4.883.163 7.094.845 7.094.845z" stroke-opacity=".4" stroke="#83C1F6" stroke-linecap="round" stroke-linejoin="round" mask="url(#aL)"/></g><g transform="translate(233 234)"><mask id="aN" fill="#fff"><use xlink:href="#aM"/></mask><path d="M-4.653-4.333H16.63V19.26H-4.652V-4.333z" fill="#FFF" mask="url(#aN)"/></g><g transform="translate(223 226)"><mask id="aP" fill="#fff"><use xlink:href="#aO"/></mask><path d="M15.99 22.26c4.835 0 5.64-3.172 5.64-7.25 0-4.078-2.394-6.343-5.64-6.343-3.08 0-5.643 2.265-5.643 6.343 0 4.078.806 7.25 5.642 7.25z" stroke-opacity=".4" stroke="#83C1F6" stroke-linecap="round" stroke-linejoin="round" mask="url(#aP)"/></g><g transform="translate(182 254)"><mask id="aR" fill="#fff"><use xlink:href="#aQ"/></mask><path d="M12 24c6.627 0 12-5.373 12-12S18.627 0 12 0 0 5.373 0 12s5.373 12 12 12z" fill="#F3F9FF" mask="url(#aR)"/></g><g transform="translate(182 254)"><mask id="aT" fill="#fff"><use xlink:href="#aS"/></mask><path d="M12 24c6.627 0 12-5.373 12-12S18.627 0 12 0 0 5.373 0 12s5.373 12 12 12z" stroke-opacity=".4" stroke="#6EB1EB" stroke-width="2" stroke-linecap="round" stroke-linejoin="round" mask="url(#aT)"/></g><g transform="translate(185 270)"><mask id="aV" fill="#fff"><use xlink:href="#aU"/></mask><path d="M-5-4.3h27.983v21.386H-5V-4.3z" fill="#CCE7FF" mask="url(#aV)"/></g><g transform="translate(182 254)"><mask id="aX" fill="#fff"><use xlink:href="#aW"/></mask><path d="M17.313 17.333c2.027.408 3.67 2.453 3.67 4.56v1.193s-6.018 5-8.983 5c-3.03 0-9-5-9-5v-1.193c0-2.107 1.643-4.152 3.67-4.56 0 0 1.658-.51 5.322-.634 3.663.122 5.32.633 5.32.633z" stroke-opacity=".4" stroke="#83C1F6" stroke-linecap="round" stroke-linejoin="round" mask="url(#aX)"/></g><g transform="translate(189 260)"><mask id="aZ" fill="#fff"><use xlink:href="#aY"/></mask><path d="M-4.24-4.5h18.463v20.195H-4.24V-4.5z" fill="#FFF" mask="url(#aZ)"/></g><g transform="translate(182 254)"><mask id="bb" fill="#fff"><use xlink:href="#ba"/></mask><path d="M11.992 16.695c3.626 0 4.23-2.38 4.23-5.437 0-3.06-1.795-4.758-4.23-4.758-2.31 0-4.232 1.7-4.232 4.758s.605 5.437 4.232 5.437z" stroke-opacity=".4" stroke="#83C1F6" stroke-linecap="round" stroke-linejoin="round" mask="url(#bb)"/></g><g transform="translate(191 106)"><mask id="bd" fill="#fff"><use xlink:href="#bc"/></mask><path d="M0 3.995A3.998 3.998 0 0 1 3.998 0H98c2.21 0 4 1.783 4 3.995v72.01A3.998 3.998 0 0 1 98 80H4c-2.21 0-4-1.783-4-3.995V3.995z" fill="#FFF" mask="url(#bd)"/></g><g transform="translate(191 106)"><mask id="bf" fill="#fff"><use xlink:href="#be"/></mask><path d="M0 3.995A3.998 3.998 0 0 1 4 0h94c2.21 0 4 1.783 4 3.995v72.01A3.998 3.998 0 0 1 98 80H4c-2.21 0-4-1.783-4-3.995V3.995z" stroke="#8F98BA" stroke-width="3" stroke-linecap="round" stroke-linejoin="round" mask="url(#bf)"/></g><g transform="translate(238 121)"><mask id="bh" fill="#fff"><use xlink:href="#bg"/></mask><path d="M-5-5h55v16H-5V-5z" fill="#E4E5EB" mask="url(#bh)"/></g><g transform="translate(238 133)"><mask id="bj" fill="#fff"><use xlink:href="#bi"/></mask><path d="M-5-5h44.4v16H-5V-5z" fill="#E4E5EB" mask="url(#bj)"/></g><g transform="translate(201 155)"><mask id="bl" fill="#fff"><use xlink:href="#bk"/></mask><path d="M-5-5h74v16H-5V-5z" fill="#E4E5EB" mask="url(#bl)"/></g><g transform="translate(201 165)"><mask id="bn" fill="#fff"><use xlink:href="#bm"/></mask><path d="M-5-5h92v16H-5V-5z" fill="#E4E5EB" mask="url(#bn)"/></g><g transform="translate(201 121)"><mask id="bp" fill="#fff"><use xlink:href="#bo"/></mask><path d="M-5-4.89h34.89V30H-5V-4.89z" fill="#C3E1F8" mask="url(#bp)"/></g><path d="M225.89 133.556c0 6.872-5.573 12.444-12.446 12.444-6.872 0-12.444-5.572-12.444-12.444 0-6.873 5.572-12.445 12.444-12.445v12.446h12.445z" stroke="#83C1F6" stroke-linecap="round" stroke-linejoin="round"/><g transform="translate(216 118)"><mask id="br" fill="#fff"><use xlink:href="#bq"/></mask><path d="M-4.444-5H18v22.444H-4.444V-5z" fill="#FFF" mask="url(#br)"/></g><path d="M229 130.444c0-6.872-5.572-12.444-12.444-12.444v12.444H229z" stroke="#83C1F6" stroke-linecap="round" stroke-linejoin="round"/><g transform="translate(315 116)"><mask id="bt" fill="#fff"><use xlink:href="#bs"/></mask><path d="M0 4a4 4 0 0 1 3.99-4h93.02C99.213 0 101 1.79 101 4v117a4 4 0 0 1-3.99 4H3.99A3.995 3.995 0 0 1 0 121V4z" fill="#FFF" mask="url(#bt)"/></g><g transform="translate(315 116)"><mask id="bv" fill="#fff"><use xlink:href="#bu"/></mask><path d="M0 4a4 4 0 0 1 3.99-4h93.02C99.213 0 101 1.79 101 4v117a4 4 0 0 1-3.99 4H3.99A3.995 3.995 0 0 1 0 121V4z" stroke="#8F98BA" stroke-width="3" stroke-linecap="round" stroke-linejoin="round" mask="url(#bv)"/></g><g transform="translate(363 126)"><mask id="bx" fill="#fff"><use xlink:href="#bw"/></mask><path d="M-5-5h53v16H-5V-5z" fill="#E4E5EB" mask="url(#bx)"/></g><g transform="translate(363 138)"><mask id="bz" fill="#fff"><use xlink:href="#by"/></mask><path d="M-5-5h43.4v16H-5V-5z" fill="#E4E5EB" mask="url(#bz)"/></g><g transform="translate(363 150)"><mask id="bB" fill="#fff"><use xlink:href="#bA"/></mask><path d="M-5-5h46.47v16H-5V-5z" fill="#E4E5EB" mask="url(#bB)"/></g><g transform="translate(325 162)"><mask id="bD" fill="#fff"><use xlink:href="#bC"/></mask><path d="M-5-5h91v16H-5V-5z" fill="#E4E5EB" mask="url(#bD)"/></g><g transform="translate(325 174)"><mask id="bF" fill="#fff"><use xlink:href="#bE"/></mask><path d="M-5-5h74.4v16H-5V-5z" fill="#E4E5EB" mask="url(#bF)"/></g><g transform="translate(325 186)"><mask id="bH" fill="#fff"><use xlink:href="#bG"/></mask><path d="M-5-5h80.33v16H-5V-5z" fill="#E4E5EB" mask="url(#bH)"/></g><g transform="translate(325 198)"><mask id="bJ" fill="#fff"><use xlink:href="#bI"/></mask><path d="M-5-5h74.4v16H-5V-5z" fill="#E4E5EB" mask="url(#bJ)"/></g><g transform="translate(325 210)"><mask id="bL" fill="#fff"><use xlink:href="#bK"/></mask><path d="M-5-5h80.33v16H-5V-5z" fill="#E4E5EB" mask="url(#bL)"/></g><g transform="translate(327 128)"><mask id="bN" fill="#fff"><use xlink:href="#bM"/></mask><path d="M-5-5h38v34H-5V-5z" fill="#FFF" mask="url(#bN)"/></g><path d="M327 129c0-.552.44-1 .997-1h26.006c.55 0 .997.447.997 1v22c0 .552-.44 1-.997 1h-26.006a.998.998 0 0 1-.997-1v-22z" stroke="#83C1F6" stroke-linecap="round" stroke-linejoin="round"/><g transform="translate(329 130)"><mask id="bP" fill="#fff"><use xlink:href="#bO"/></mask><path d="M-5-5h34v30H-5V-5z" fill="#C3E1F8" mask="url(#bP)"/></g><g transform="translate(329 130)"><mask id="bR" fill="#fff"><use xlink:href="#bQ"/></mask><path d="M-6.26 4.976h34.797v20.31H-6.26V4.976z" fill="#FFF" mask="url(#bR)"/></g><g transform="translate(342 135)"><mask id="bT" fill="#fff"><use xlink:href="#bS"/></mask><path d="M-4.38-4.286h15.51V11.43H-4.38V-4.287z" fill="#FFF" mask="url(#bT)"/></g><path d="M148 131l21.054-23.053" stroke="#CAC0EE" stroke-linecap="square"/><g transform="translate(207 177)"><mask id="bV" fill="#fff"><use xlink:href="#bU"/></mask><path d="M-5-5h82v28H-5V-5z" fill="#6DB0EA" mask="url(#bV)"/></g><g transform="translate(216 181)"><mask id="bX" fill="#fff"><use xlink:href="#bW"/></mask><path d="M-4.692-4.918h63.525v21.736H-4.692V-4.918z" fill="#FFFEFF" mask="url(#bX)"/></g><g transform="translate(57 176)"><mask id="bZ" fill="#fff"><use xlink:href="#bY"/></mask><path d="M-5-5h75v28H-5V-5z" fill="#A192D7" mask="url(#bZ)"/></g><g transform="translate(65 180)"><mask id="cb" fill="#fff"><use xlink:href="#ca"/></mask><path d="M-4.506-4.918h57.672v21.736H-4.506V-4.918z" fill="#FFFEFF" mask="url(#cb)"/></g><g transform="translate(344 231)"><mask id="cd" fill="#fff"><use xlink:href="#cc"/></mask><path d="M-5-5h53v28H-5V-5z" fill="#6DB0EA" mask="url(#cd)"/></g><g transform="translate(353 235)"><mask id="cf" fill="#fff"><use xlink:href="#ce"/></mask><path d="M-4.975-4.402h35.63v18.548h-35.63V-4.402z" fill="#FFFEFF" mask="url(#cf)"/></g><g transform="translate(7 70)"><mask id="ch" fill="#fff"><use xlink:href="#cg"/></mask><path d="M-5-5h99v28H-5V-5z" fill="#A192D7" mask="url(#ch)"/></g><g transform="translate(16 74)"><mask id="cj" fill="#fff"><use xlink:href="#ci"/></mask><path d="M-4.768-4.883h81.274V16.76H-4.768V-4.883z" fill="#FFFEFF" mask="url(#cj)"/></g><g transform="translate(147 8)"><mask id="cl" fill="#fff"><use xlink:href="#ck"/></mask><path d="M0 3.995A4 4 0 0 1 3.998 0h237.004A3.993 3.993 0 0 1 245 3.995v72.01A4 4 0 0 1 241.002 80H3.998A3.993 3.993 0 0 1 0 76.005V3.995z" fill="#FFF" mask="url(#cl)"/></g><g transform="translate(147 8)"><mask id="cn" fill="#fff"><use xlink:href="#cm"/></mask><path d="M0 3.995A4 4 0 0 1 3.998 0h237.004A3.993 3.993 0 0 1 245 3.995v72.01A4 4 0 0 1 241.002 80H3.998A3.993 3.993 0 0 1 0 76.005V3.995z" stroke="#8F98BA" stroke-width="3" stroke-linecap="round" stroke-linejoin="round" mask="url(#cn)"/></g><g transform="translate(182 20)"><mask id="cp" fill="#fff"><use xlink:href="#co"/></mask><path d="M0 1.002C0-.104.686-.42 1.535.295l60.93 51.41c.848.715.63 1.295-.468 1.295H2.003A2 2 0 0 1 0 50.998V1.002zm9 19.29c0-.622.375-.805.853-.395l26.294 22.538c.47.404.343.73-.262.73h-25.77A1.12 1.12 0 0 1 9 42.042V20.29z" fill="#AFE9C5" mask="url(#cp)"/></g><g transform="translate(182 19)"><mask id="cr" fill="#fff"><use xlink:href="#cq"/></mask><path d="M0 2.002C0 .896.686.58 1.535 1.295l60.93 51.41c.848.715.63 1.295-.468 1.295H2.003A2 2 0 0 1 0 51.998V2.002zm9 19.29c0-.622.375-.805.853-.395l26.294 22.538c.47.403.343.73-.262.73h-25.77A1.12 1.12 0 0 1 9 43.042V21.29z" stroke="#79D49A" stroke-width="2" stroke-linecap="round" stroke-linejoin="round" mask="url(#cr)"/></g><g transform="translate(211 70)"><mask id="ct" fill="#fff"><use xlink:href="#cs"/></mask><path d="M-5-5H6V7H-5V-5z" fill="#79D49A" mask="url(#ct)"/></g><g transform="translate(206 70)"><mask id="cv" fill="#fff"><use xlink:href="#cu"/></mask><path d="M-5-5H6V7H-5V-5z" fill="#79D49A" mask="url(#cv)"/></g><g transform="translate(201 70)"><mask id="cx" fill="#fff"><use xlink:href="#cw"/></mask><path d="M-5-5H6V7H-5V-5z" fill="#79D49A" mask="url(#cx)"/></g><g transform="translate(196 70)"><mask id="cz" fill="#fff"><use xlink:href="#cy"/></mask><path d="M-5-5H6V7H-5V-5z" fill="#79D49A" mask="url(#cz)"/></g><g transform="translate(191 70)"><mask id="cB" fill="#fff"><use xlink:href="#cA"/></mask><path d="M-5-5H6V7H-5V-5z" fill="#79D49A" mask="url(#cB)"/></g><g transform="translate(186 70)"><mask id="cD" fill="#fff"><use xlink:href="#cC"/></mask><path d="M-5-5H6V7H-5V-5z" fill="#79D49A" mask="url(#cD)"/></g><g transform="translate(236 70)"><mask id="cF" fill="#fff"><use xlink:href="#cE"/></mask><path d="M-5-5H6V7H-5V-5z" fill="#79D49A" mask="url(#cF)"/></g><g transform="translate(231 70)"><mask id="cH" fill="#fff"><use xlink:href="#cG"/></mask><path d="M-5-5H6V7H-5V-5z" fill="#79D49A" mask="url(#cH)"/></g><g transform="translate(226 70)"><mask id="cJ" fill="#fff"><use xlink:href="#cI"/></mask><path d="M-5-5H6V7H-5V-5z" fill="#79D49A" mask="url(#cJ)"/></g><g transform="translate(221 70)"><mask id="cL" fill="#fff"><use xlink:href="#cK"/></mask><path d="M-5-5H6V7H-5V-5z" fill="#79D49A" mask="url(#cL)"/></g><g transform="translate(216 70)"><mask id="cN" fill="#fff"><use xlink:href="#cM"/></mask><path d="M-5-5H6V7H-5V-5z" fill="#79D49A" mask="url(#cN)"/></g><g transform="translate(225 36)"><mask id="cP" fill="#fff"><use xlink:href="#cO"/></mask><path d="M7.995 2.07a2.502 2.502 0 0 1 3.06-1.76l6.76 1.81a2.503 2.503 0 0 1 1.77 3.056l-8.423 31.439-7.784 5.865-3.807-8.97L7.996 2.07z" fill="#E6FCEE" mask="url(#cP)"/></g><g transform="translate(224 36)"><mask id="cR" fill="#fff"><use xlink:href="#cQ"/></mask><path d="M8.995 2.07a2.502 2.502 0 0 1 3.06-1.76l6.76 1.81a2.503 2.503 0 0 1 1.77 3.055l-8.423 31.44-7.784 5.865L.57 33.51 8.996 2.07z" stroke="#79D49A" stroke-width="2" stroke-linecap="round" stroke-linejoin="round" mask="url(#cR)"/></g><g transform="translate(233 34)"><mask id="cT" fill="#fff"><use xlink:href="#cS"/></mask><path d="M-1.412-6.134L17.906-.958 13.33 16.12l-19.318-5.177 4.576-17.077z" fill="#E6FCEE" mask="url(#cT)"/></g><path d="M234.478 36.398a2.502 2.502 0 0 1 3.058-1.762l4.834 1.295a2.496 2.496 0 0 1 1.767 3.056l-1.342 5.01-9.66-2.588 1.343-5.01z" stroke="#79D49A" stroke-linecap="round" stroke-linejoin="round"/><g transform="translate(233 34)"><mask id="cV" fill="#fff"><use xlink:href="#cU"/></mask><path d="M-1.412-6.134L17.906-.958 13.33 16.12l-19.318-5.177 4.576-17.077z" fill="#E6FCEE" mask="url(#cV)"/></g><path d="M234.478 36.398a2.502 2.502 0 0 1 3.058-1.762l4.834 1.295a2.496 2.496 0 0 1 1.767 3.056l-1.342 5.01-9.66-2.588 1.343-5.01z" stroke="#79D49A" stroke-linecap="round" stroke-linejoin="round"/><g transform="translate(225 68)"><mask id="cX" fill="#fff"><use xlink:href="#cW"/></mask><path d="M-2.472-6.323l19.318 5.177-5.434 20.28-19.318-5.176 5.434-20.28z" fill="#FFF" mask="url(#cX)"/></g><path d="M227.538 68.58a1.215 1.215 0 0 1 1.69.453l1.138 2.03 2-1.19a1.215 1.215 0 0 1 1.69.454l1.14 2.03-7.15 7.36-2.51-9.95 2.002-1.187z" stroke="#79D49A" stroke-width="1.5" stroke-linecap="round" stroke-linejoin="round"/><g transform="translate(226 75)"><mask id="cZ" fill="#fff"><use xlink:href="#cY"/></mask><path d="M-2.91-5.764L11.58-1.88 7.997 11.486-6.49 7.605l3.58-13.37z" fill="#79D49A" mask="url(#cZ)"/></g><g transform="translate(232 38)"><mask id="db" fill="#fff"><use xlink:href="#da"/></mask><path d="M-1.738-5.19L17.582-.01l-3.583 13.368L-5.32 8.18l3.583-13.37z" fill="#FFF" mask="url(#db)"/></g><path d="M233.798 38.935l9.66 2.588-.995 3.71-9.66-2.59.995-3.708z" stroke="#79D49A" stroke-linecap="round" stroke-linejoin="round"/><g transform="translate(169 20)"><mask id="dd" fill="#fff"><use xlink:href="#dc"/></mask><path d="M0 1c0-.552.456-1 .995-1h8.01c.55 0 .995.442.995 1v51c0 .552-.456 1-.995 1H.995A.994.994 0 0 1 0 52V1z" fill="#AFE9C5" mask="url(#dd)"/></g><g transform="translate(169 20)"><mask id="df" fill="#fff"><use xlink:href="#de"/></mask><path d="M0 1c0-.552.456-1 .995-1h8.01c.55 0 .995.442.995 1v51c0 .552-.456 1-.995 1H.995A.994.994 0 0 1 0 52V1z" stroke="#79D49A" stroke-width="2" stroke-linecap="round" stroke-linejoin="round" mask="url(#df)"/></g><g transform="translate(169 50)"><mask id="dh" fill="#fff"><use xlink:href="#dg"/></mask><path d="M7-5V6H-5V-5H7z" fill="#79D49A" mask="url(#dh)"/></g><g transform="translate(169 45)"><mask id="dj" fill="#fff"><use xlink:href="#di"/></mask><path d="M7-5V6H-5V-5H7z" fill="#79D49A" mask="url(#dj)"/></g><g transform="translate(169 40)"><mask id="dl" fill="#fff"><use xlink:href="#dk"/></mask><path d="M7-5V6H-5V-5H7z" fill="#79D49A" mask="url(#dl)"/></g><g transform="translate(169 35)"><mask id="dn" fill="#fff"><use xlink:href="#dm"/></mask><path d="M7-5V6H-5V-5H7z" fill="#79D49A" mask="url(#dn)"/></g><g transform="translate(169 30)"><mask id="dp" fill="#fff"><use xlink:href="#do"/></mask><path d="M7-5V6H-5V-5H7z" fill="#79D49A" mask="url(#dp)"/></g><g transform="translate(169 25)"><mask id="dr" fill="#fff"><use xlink:href="#dq"/></mask><path d="M7-5V6H-5V-5H7z" fill="#79D49A" mask="url(#dr)"/></g><g transform="translate(169 65)"><mask id="dt" fill="#fff"><use xlink:href="#ds"/></mask><path d="M7-5V6H-5V-5H7z" fill="#79D49A" mask="url(#dt)"/></g><g transform="translate(169 60)"><mask id="dv" fill="#fff"><use xlink:href="#du"/></mask><path d="M7-5V6H-5V-5H7z" fill="#79D49A" mask="url(#dv)"/></g><g transform="translate(169 55)"><mask id="dx" fill="#fff"><use xlink:href="#dw"/></mask><path d="M7-5V6H-5V-5H7z" fill="#79D49A" mask="url(#dx)"/></g><g transform="translate(260 25)"><mask id="dz" fill="#fff"><use xlink:href="#dy"/></mask><path d="M-4-4h38v34H-4V-4z" fill="#FFF" mask="url(#dz)"/></g><path d="M261 27c0-.552.44-1 .997-1h26.006c.55 0 .997.447.997 1v22c0 .552-.44 1-.997 1h-26.006a.998.998 0 0 1-.997-1V27z" stroke="#79D49A" stroke-width="2" stroke-linecap="round" stroke-linejoin="round"/><g><g transform="translate(263 28)"><mask id="dB" fill="#fff"><use xlink:href="#dA"/></mask><path d="M-5-5h34v30H-5V-5z" fill="#AFE9C5" mask="url(#dB)"/></g><g transform="translate(263 28)"><mask id="dD" fill="#fff"><use xlink:href="#dC"/></mask><path d="M-6.26 4.976h34.797v20.31H-6.26V4.976z" fill="#E6FCEE" mask="url(#dD)"/></g><g transform="translate(276 33)"><mask id="dF" fill="#fff"><use xlink:href="#dE"/></mask><path d="M-4.38-4.286h15.51V11.43H-4.38V-4.287z" fill="#E6FCEE" mask="url(#dF)"/></g></g><g transform="translate(255 22)"><mask id="dH" fill="#fff"><use xlink:href="#dG"/></mask><path d="M-5.753 4.497l36.706-9.835 8.8 32.84L3.046 37.34l-8.8-32.84z" fill="#FFF" mask="url(#dH)"/></g><g transform="translate(241 9)"><mask id="dJ" fill="#fff"><use xlink:href="#dI"/></mask><path d="M14.63 22a.995.995 0 0 1 .704-1.226l25.12-6.73a.998.998 0 0 1 1.222.708l5.694 21.25a.995.995 0 0 1-.704 1.224l-25.12 6.73a.998.998 0 0 1-1.222-.708l-5.694-21.25z" stroke="#79D49A" stroke-width="2" stroke-linecap="round" stroke-linejoin="round" mask="url(#dJ)"/></g><g><g transform="translate(257 25)"><mask id="dL" fill="#fff"><use xlink:href="#dK"/></mask><path d="M-5.303 2.91l32.84-8.8 7.766 28.98-32.84 8.8-7.766-28.98z" fill="#AFE9C5" mask="url(#dL)"/></g><g transform="translate(261 39)"><mask id="dN" fill="#fff"><use xlink:href="#dM"/></mask><path d="M-7.939-1.126l33.613-9.007L30.93 9.485-2.682 18.49-7.94-1.125z" fill="#E6FCEE" mask="url(#dN)"/></g><g transform="translate(273 32)"><mask id="dP" fill="#fff"><use xlink:href="#dO"/></mask><path d="M-6.668-2.095L8.312-6.11 12.38 9.07-2.6 13.084-6.67-2.096z" fill="#E6FCEE" mask="url(#dP)"/></g></g><g transform="translate(244 79)"><mask id="dR" fill="#fff"><use xlink:href="#dQ"/></mask><path d="M-5-5h62v28H-5V-5z" fill="#79D49A" mask="url(#dR)"/></g><g transform="translate(252 83)"><mask id="dT" fill="#fff"><use xlink:href="#dS"/></mask><path d="M-4.443-4.918h45.185v21.736H-4.443V-4.918z" fill="#FFFEFF" mask="url(#dT)"/></g><path d="M366.5 31v25.505" stroke="#AFE9C5"/><g transform="translate(360 25)"><mask id="dV" fill="#fff"><use xlink:href="#dU"/></mask><path d="M-4-4h21v21H-4V-4z" fill="#AFE9C5" mask="url(#dV)"/></g><path d="M366.5 37a5.5 5.5 0 1 0 0-11 5.5 5.5 0 0 0 0 11z" stroke="#AFE9C5" stroke-width="2" stroke-linecap="round" stroke-linejoin="round"/><g transform="translate(305 51)"><mask id="dX" fill="#fff"><use xlink:href="#dW"/></mask><path d="M-4-4h26v18H-4V-4z" fill="#AFE9C5" mask="url(#dX)"/></g><path d="M306 52.997c0-.55.445-.997 1-.997h14c.552 0 1 .453 1 .997v6.006c0 .55-.445.997-1 .997h-14c-.552 0-1-.453-1-.997v-6.006z" stroke="#AFE9C5" stroke-width="2" stroke-linecap="round" stroke-linejoin="round"/><g stroke="#AFE9C5"><path d="M323 56.5h15.508M351 56.5h15.508M313.5 61v25.505"/></g><g transform="translate(339 50)"><mask id="dZ" fill="#fff"><use xlink:href="#dY"/></mask><path d="M-4-4h20v22H-4V-4z" fill="#AFE9C5" mask="url(#dZ)"/></g><path d="M340 63V51l10 6-10 6z" stroke="#AFE9C5" stroke-width="2" stroke-linecap="round" stroke-linejoin="round"/></g></svg>