<svg width="396" height="260" viewBox="0 0 396 260" xmlns="http://www.w3.org/2000/svg" xmlns:xlink="http://www.w3.org/1999/xlink"><title>sample</title><defs><path id="a" d="M7.335 26c0-.2-.08-.39-.22-.53l-5.46-5.46c-1.48-1.482-1.16-2.26.93-2.26h4a.75.75 0 0 0 .75-.75V4.003A3.252 3.252 0 0 1 10.587.75h324.997a3.254 3.254 0 0 1 3.25 3.253v55.993a3.253 3.253 0 0 1-3.25 3.254H10.587a3.254 3.254 0 0 1-3.252-3.254V26z"/><path id="c" d="M6.585 26v33.996A4.004 4.004 0 0 0 10.587 64h324.997c2.21 0 4-1.792 4-4.004V4.005a4.004 4.004 0 0 0-4-4.004H10.587c-2.21 0-4.002 1.792-4.002 4.003V17h-4c-2.755 0-3.415 1.585-1.46 3.54L6.585 26z"/><path id="e" d="M24 47.25C11.16 47.25.75 36.84.75 24S11.16.75 24 .75 47.25 11.16 47.25 24 36.84 47.25 24 47.25z"/><path id="g" d="M24 48c13.255 0 24-10.745 24-24S37.255 0 24 0 0 10.745 0 24s10.745 24 24 24z"/><path id="i" d="M33.9 6.603C29.696 11.15 23.68 14 17 14 10.308 14 4.283 11.142.08 6.58 1.37 4.13 3.69 2.2 6.34 1.666c0 0 3.317-1.024 10.643-1.268 7.327.243 10.644 1.267 10.644 1.267 2.656.534 4.983 2.475 6.272 4.936z"/><path id="k" d="M23 46c12.703 0 23-10.297 23-23S35.703 0 23 0 0 10.297 0 23s10.297 23 23 23z"/><path id="m" d="M8.983 20.39c7.254 0 8.463-4.758 8.463-10.875S13.854 0 8.983 0C4.366 0 .52 3.398.52 9.515c0 6.117 1.21 10.875 8.463 10.875z"/><path id="o" d="M23 46c12.703 0 23-10.297 23-23S35.703 0 23 0 0 10.297 0 23s10.297 23 23 23z"/><path id="q" d="M24 47.25C11.16 47.25.75 36.84.75 24S11.16.75 24 .75 47.25 11.16 47.25 24 36.84 47.25 24 47.25z"/><path id="s" d="M24 48c13.255 0 24-10.745 24-24S37.255 0 24 0 0 10.745 0 24s10.745 24 24 24z"/><path id="u" d="M33.9 6.603C29.696 11.15 23.68 14 17 14 10.308 14 4.283 11.142.08 6.58 1.37 4.13 3.69 2.2 6.34 1.666c0 0 3.317-1.024 10.643-1.268 7.327.243 10.644 1.267 10.644 1.267 2.656.534 4.983 2.475 6.272 4.936z"/><path id="w" d="M23 46c12.703 0 23-10.297 23-23S35.703 0 23 0 0 10.297 0 23s10.297 23 23 23z"/><path id="y" d="M8.983 20.39c7.254 0 8.463-4.758 8.463-10.875S13.854 0 8.983 0C4.366 0 .52 3.398.52 9.515c0 6.117 1.21 10.875 8.463 10.875z"/><path id="A" d="M23 46c12.703 0 23-10.297 23-23S35.703 0 23 0 0 10.297 0 23s10.297 23 23 23z"/><path id="C" d="M0 1.998C0 .894.892 0 1.995 0h276.01A2 2 0 0 1 280 1.998v2.004A1.996 1.996 0 0 1 278.005 6H1.995A2 2 0 0 1 0 4.002V1.998z"/><path id="E" d="M0 1.998C0 .894.89 0 1.994 0h206.012A2 2 0 0 1 210 1.998v2.004C210 5.106 209.11 6 208.006 6H1.994A2 2 0 0 1 0 4.002V1.998z"/><path id="G" d="M0 1.998C0 .894.89 0 2.006 0h85.988C89.102 0 90 .898 90 1.998v2.004C90 5.106 89.11 6 87.994 6H2.006A2.004 2.004 0 0 1 0 4.002V1.998z"/><path id="I" d="M24 47.25C11.16 47.25.75 36.84.75 24S11.16.75 24 .75 47.25 11.16 47.25 24 36.84 47.25 24 47.25z"/><path id="K" d="M24 48c13.255 0 24-10.745 24-24S37.255 0 24 0 0 10.745 0 24s10.745 24 24 24z"/><path id="M" d="M33.9 6.603C29.695 11.15 23.68 14 17 14 10.308 14 4.283 11.142.08 6.58 1.37 4.13 3.69 2.2 6.34 1.666c0 0 3.317-1.024 10.643-1.268 7.327.243 10.644 1.267 10.644 1.267 2.656.534 4.983 2.475 6.272 4.936z"/><path id="O" d="M23 46c12.703 0 23-10.297 23-23S35.703 0 23 0 0 10.297 0 23s10.297 23 23 23z"/><path id="Q" d="M8.983 20.39c7.254 0 8.463-4.758 8.463-10.875S13.854 0 8.983 0C4.366 0 .52 3.398.52 9.515c0 6.117 1.21 10.875 8.463 10.875z"/><path id="S" d="M23 46c12.703 0 23-10.297 23-23S35.703 0 23 0 0 10.297 0 23s10.297 23 23 23z"/><path id="U" d="M241.25 17c0 .414.336.75.75.75h4c2.09 0 2.41.778.93 2.26l-5.46 5.46a.75.75 0 0 0-.22.53v62.003A3.25 3.25 0 0 1 238 91.25H4A3.252 3.252 0 0 1 .75 88.003V3.998A3.25 3.25 0 0 1 3.998.75h234.004a3.252 3.252 0 0 1 3.248 3.248V17z"/><path id="W" d="M242 17V3.998C242 1.796 240.21 0 238 0H4A4 4 0 0 0 0 3.998v84.005C0 90.203 1.79 92 3.998 92h234.004A4 4 0 0 0 242 88.003V26l5.46-5.46c1.955-1.955 1.296-3.54-1.46-3.54h-4z"/><path id="Y" d="M.75 2.663C.75 1.606 1.608.75 2.668.75h58.663c1.06 0 1.92.86 1.92 1.913v50.674a1.915 1.915 0 0 1-1.92 1.913H2.67c-1.06 0-1.92-.86-1.92-1.913V2.663z"/><path id="aa" d="M0 2.663A2.665 2.665 0 0 1 2.668 0h58.663A2.668 2.668 0 0 1 64 2.663v50.674A2.665 2.665 0 0 1 61.33 56H2.67A2.668 2.668 0 0 1 0 53.337V2.663z"/><path id="ac" d="M.667 2c0-.736.603-1.333 1.323-1.333h40.02c.73 0 1.323.59 1.323 1.333 0 .736-.603 1.333-1.323 1.333H1.99C1.26 3.333.667 2.74.667 2z"/><path id="ae" d="M.667 2c0-.736.6-1.333 1.336-1.333h26.66C29.403.667 30 1.257 30 2c0 .736-.6 1.333-1.337 1.333H2.003A1.332 1.332 0 0 1 .667 2z"/><path d="M0 1.006C0 .45.45 0 .992 0h50.016c.548 0 .992.442.992 1.006v30.988c0 .556-.45 1.006-.992 1.006H.992A.994.994 0 0 1 0 31.994V1.006zM0 33h52V0H0v33z" id="ag"/><path id="ai" d="M51.71 19.702a.984.984 0 0 1-.702.298H.992A.994.994 0 0 1 0 18.994v-5.066C2.8 10.135 10.518.058 13.498.058c3.67 0 9.735 14.62 16.307 14.62C36.377 14.678 37.583 9 42.41 9c3.312 0 7.19 6.574 9.3 10.702z"/><path id="ak" d="M6.583 12.73c3.333 0 6.034-2.843 6.034-6.35 0-3.506-2.7-6.348-6.034-6.348C3.25.032.55 2.874.55 6.382c0 3.505 2.7 6.348 6.033 6.348z"/><path id="am" d="M10 20c5.523 0 10-4.477 10-10S15.523 0 10 0 0 4.477 0 10s4.477 10 10 10z"/><path id="ao" d="M.022 9.048V.714v8.334z"/><path id="aq" d="M.43 5.476L4.02.714.43 5.476z"/><path id="as" d="M3.616 5.476L.022.714l3.594 4.762z"/><path id="au" d="M0 1.998C0 .894.886 0 2.006 0h50.988C54.102 0 55 .898 55 1.998v2.004A1.994 1.994 0 0 1 52.994 6H2.006A2.005 2.005 0 0 1 0 4.002V1.998z"/><path id="aw" d="M0 1.998C0 .894.902 0 2.01 0h128.98c1.11 0 2.01.898 2.01 1.998v2.004A2.005 2.005 0 0 1 130.99 6H2.01C.9 6 0 5.102 0 4.002V1.998z"/><path id="ay" d="M.75 4.002A3.247 3.247 0 0 1 3.993.75h177.014a3.246 3.246 0 0 1 3.243 3.252v37.996a3.247 3.247 0 0 1-3.243 3.252H3.993A3.246 3.246 0 0 1 .75 41.998V4.002z"/><path id="aA" d="M0 4.002A3.996 3.996 0 0 1 3.993 0h177.014A3.996 3.996 0 0 1 185 4.002v37.996A3.996 3.996 0 0 1 181.007 46H3.993A3.996 3.996 0 0 1 0 41.998V4.002z"/><path id="aC" d="M0 1.998C0 .894.89 0 1.99 0h115.02c1.1 0 1.99.898 1.99 1.998v2.004C119 5.106 118.11 6 117.01 6H1.99C.89 6 0 5.102 0 4.002V1.998z"/><path id="aE" d="M0 1.998C0 .894.892 0 1.997 0h45.006A2 2 0 0 1 49 1.998v2.004A1.996 1.996 0 0 1 47.003 6H1.997A2 2 0 0 1 0 4.002V1.998z"/><path id="aG" d="M9.192 14.85L4.95 10.605A.995.995 0 0 0 3.54 10.6l-2.84 2.842a1 1 0 0 0 .004 1.406l7.78 7.78a1 1 0 0 0 .708.294.99.99 0 0 0 .7-.29L27.582 4.945a.993.993 0 0 0 .002-1.403L24.742.702a.997.997 0 0 0-1.402 0L9.192 14.85z"/></defs><g fill="none" fill-rule="evenodd"><g transform="translate(56)"><mask id="b" fill="#fff"><use xlink:href="#a"/></mask><path d="M6.585 26v33.996A4.004 4.004 0 0 0 10.587 64h324.997c2.21 0 4-1.792 4-4.004V4.005a4.004 4.004 0 0 0-4-4.004H10.587c-2.21 0-4.002 1.792-4.002 4.003V17h-4c-2.755 0-3.415 1.585-1.46 3.54L6.585 26z" fill="#FFF" mask="url(#b)"/></g><g transform="translate(56)"><mask id="d" fill="#fff"><use xlink:href="#c"/></mask><path d="M6.585 26v33.997A4.004 4.004 0 0 0 10.587 64h324.997c2.21 0 4-1.792 4-4.003V4.003a4.004 4.004 0 0 0-4-4.003H10.587c-2.21 0-4.002 1.792-4.002 4.003V17h-4c-2.755 0-3.415 1.585-1.46 3.54L6.585 26z" stroke="#8F98BA" stroke-width="3" stroke-linecap="round" stroke-linejoin="round" mask="url(#d)"/></g><mask id="f" fill="#fff"><use xlink:href="#e"/></mask><path d="M24 48c13.255 0 24-10.745 24-24S37.255 0 24 0 0 10.745 0 24s10.745 24 24 24z" fill="#F3F9FF" mask="url(#f)"/><mask id="h" fill="#fff"><use xlink:href="#g"/></mask><path d="M24 48c13.255 0 24-10.745 24-24S37.255 0 24 0 0 10.745 0 24s10.745 24 24 24z" stroke="#A8B0BE" stroke-width="3" stroke-linecap="round" stroke-linejoin="round" mask="url(#h)"/><g transform="translate(7 33)"><mask id="j" fill="#fff"><use xlink:href="#i"/></mask><path d="M-6-4.6h45.966V28.17H-6V-4.6z" fill="#BAC0CD" mask="url(#j)"/></g><g transform="translate(1 1)"><mask id="l" fill="#fff"><use xlink:href="#k"/></mask><path d="M33.627 33.667c4.053.815 7.34 4.905 7.34 9.12v2.385s-12.036 10-17.967 10c-6.058 0-18-10-18-10v-2.386c0-4.214 3.286-8.304 7.34-9.12 0 0 3.317-1.023 10.643-1.267 7.327.243 10.644 1.267 10.644 1.267z" stroke="#BAC0CD" stroke-linecap="round" stroke-linejoin="round" mask="url(#l)"/></g><g transform="translate(15 13)"><mask id="n" fill="#fff"><use xlink:href="#m"/></mask><path d="M-4.48-5h26.926v30.39H-4.48V-5z" fill="#FFF" mask="url(#n)"/></g><g transform="translate(1 1)"><mask id="p" fill="#fff"><use xlink:href="#o"/></mask><path d="M22.983 32.39c7.254 0 8.463-4.758 8.463-10.875S27.854 12 22.983 12c-4.617 0-8.463 3.398-8.463 9.515 0 6.117 1.21 10.875 8.463 10.875z" stroke="#A8B0BE" stroke-linecap="round" stroke-linejoin="round" mask="url(#p)"/></g><mask id="r" fill="#fff"><use xlink:href="#q"/></mask><path d="M24 48c13.255 0 24-10.745 24-24S37.255 0 24 0 0 10.745 0 24s10.745 24 24 24z" fill="#F3F9FF" mask="url(#r)"/><mask id="t" fill="#fff"><use xlink:href="#s"/></mask><path d="M24 48c13.255 0 24-10.745 24-24S37.255 0 24 0 0 10.745 0 24s10.745 24 24 24z" stroke="#8F98BA" stroke-width="3" stroke-linecap="round" stroke-linejoin="round" mask="url(#t)"/><g transform="translate(7 33)"><mask id="v" fill="#fff"><use xlink:href="#u"/></mask><path d="M-6-4.6h45.966V28.17H-6V-4.6z" fill="#CAC0EE" mask="url(#v)"/></g><g transform="translate(1 1)"><mask id="x" fill="#fff"><use xlink:href="#w"/></mask><path d="M33.627 33.667c4.053.815 7.34 4.905 7.34 9.12v2.385s-12.036 10-17.967 10c-6.058 0-18-10-18-10v-2.386c0-4.214 3.286-8.304 7.34-9.12 0 0 3.317-1.023 10.643-1.267 7.327.243 10.644 1.267 10.644 1.267z" stroke="#A192D7" stroke-linecap="round" stroke-linejoin="round" mask="url(#x)"/></g><g transform="translate(15 13)"><mask id="z" fill="#fff"><use xlink:href="#y"/></mask><path d="M-4.48-5h26.926v30.39H-4.48V-5z" fill="#FFF" mask="url(#z)"/></g><g transform="translate(1 1)"><mask id="B" fill="#fff"><use xlink:href="#A"/></mask><path d="M22.983 32.39c7.254 0 8.463-4.758 8.463-10.875S27.854 12 22.983 12c-4.617 0-8.463 3.398-8.463 9.515 0 6.117 1.21 10.875 8.463 10.875z" stroke="#8F98BA" stroke-linecap="round" stroke-linejoin="round" mask="url(#B)"/></g><g transform="translate(77 17)"><mask id="D" fill="#fff"><use xlink:href="#C"/></mask><path d="M-5-5h290v16H-5V-5z" fill="#E4E5EB" mask="url(#D)"/></g><g transform="translate(77 29)"><mask id="F" fill="#fff"><use xlink:href="#E"/></mask><path d="M-5-5h220v16H-5V-5z" fill="#E4E5EB" mask="url(#F)"/></g><g transform="translate(77 41)"><mask id="H" fill="#fff"><use xlink:href="#G"/></mask><path d="M-5-5H95v16H-5V-5z" fill="#E4E5EB" mask="url(#H)"/></g><g transform="translate(348 88)"><mask id="J" fill="#fff"><use xlink:href="#I"/></mask><path d="M24 48c13.255 0 24-10.745 24-24S37.255 0 24 0 0 10.745 0 24s10.745 24 24 24z" fill="#F3F9FF" mask="url(#J)"/></g><g transform="translate(348 88)"><mask id="L" fill="#fff"><use xlink:href="#K"/></mask><path d="M24 48c13.255 0 24-10.745 24-24S37.255 0 24 0 0 10.745 0 24s10.745 24 24 24z" stroke="#8F99BA" stroke-width="3" stroke-linecap="round" stroke-linejoin="round" mask="url(#L)"/></g><g transform="translate(355 121)"><mask id="N" fill="#fff"><use xlink:href="#M"/></mask><path d="M-6-4.6h45.966V28.17H-6V-4.6z" fill="#CAC0EE" mask="url(#N)"/></g><g transform="translate(349 89)"><mask id="P" fill="#fff"><use xlink:href="#O"/></mask><path d="M33.627 33.667c4.053.815 7.34 4.905 7.34 9.12v2.385s-12.036 10-17.967 10c-6.058 0-18-10-18-10v-2.386c0-4.214 3.286-8.304 7.34-9.12 0 0 3.317-1.023 10.643-1.267 7.327.243 10.644 1.267 10.644 1.267z" stroke="#A192D7" stroke-linecap="round" stroke-linejoin="round" mask="url(#P)"/></g><g transform="translate(363 101)"><mask id="R" fill="#fff"><use xlink:href="#Q"/></mask><path d="M-4.48-5h26.926v30.39H-4.48V-5z" fill="#FFF" mask="url(#R)"/></g><g transform="translate(349 89)"><mask id="T" fill="#fff"><use xlink:href="#S"/></mask><path d="M22.983 32.39c7.254 0 8.463-4.758 8.463-10.875S27.854 12 22.983 12c-4.617 0-8.463 3.398-8.463 9.515 0 6.117 1.21 10.875 8.463 10.875z" stroke="#8F98BA" stroke-linecap="round" stroke-linejoin="round" mask="url(#T)"/></g><g transform="translate(91 88)"><mask id="V" fill="#fff"><use xlink:href="#U"/></mask><path d="M242 17V3.998C242 1.796 240.21 0 238 0H4A4 4 0 0 0 0 3.998v84.005C0 90.203 1.79 92 3.998 92h234.004A4 4 0 0 0 242 88.003V26l5.46-5.46c1.955-1.955 1.296-3.54-1.46-3.54h-4z" fill="#FFF" mask="url(#V)"/></g><g transform="translate(91 88)"><mask id="X" fill="#fff"><use xlink:href="#W"/></mask><path d="M242 17V3.997c0-2.2-1.79-3.997-4-3.997H4A4 4 0 0 0 0 3.997v84.006C0 90.203 1.79 92 3.998 92H238a4 4 0 0 0 4-3.997V26l5.46-5.46c1.955-1.955 1.296-3.54-1.46-3.54h-4z" stroke="#8F98BA" stroke-width="3" stroke-linecap="round" stroke-linejoin="round" mask="url(#X)"/></g><g transform="translate(105 102)"><mask id="Z" fill="#fff"><use xlink:href="#Y"/></mask><path d="M0 2.663A2.665 2.665 0 0 1 2.668 0h58.663A2.668 2.668 0 0 1 64 2.663v50.674A2.665 2.665 0 0 1 61.33 56H2.67A2.668 2.668 0 0 1 0 53.337V2.663z" fill="#FFF" mask="url(#Z)"/></g><g transform="translate(105 102)"><mask id="ab" fill="#fff"><use xlink:href="#aa"/></mask><path d="M0 2.663A2.665 2.665 0 0 1 2.67 0h58.66A2.668 2.668 0 0 1 64 2.663v50.674A2.665 2.665 0 0 1 61.33 56H2.67A2.668 2.668 0 0 1 0 53.337V2.663z" stroke="#BABECC" stroke-width="3" stroke-linecap="round" stroke-linejoin="round" mask="url(#ab)"/></g><g transform="translate(111 144)"><mask id="ad" fill="#fff"><use xlink:href="#ac"/></mask><path d="M-4.333-4.333h52.666V8.333H-4.333V-4.333z" fill="#E4E5EB" mask="url(#ad)"/></g><g transform="translate(111 149)"><mask id="af" fill="#fff"><use xlink:href="#ae"/></mask><path d="M-4.333-4.333H35V8.333H-4.333V-4.333z" fill="#E4E5EB" mask="url(#af)"/></g><g><g transform="translate(111 108)"><mask id="ah" fill="#fff"><use xlink:href="#ag"/></mask><path d="M-5-5h62v43H-5V-5z" fill="#BABECC" mask="url(#ah)"/></g><g transform="translate(111 121)"><mask id="aj" fill="#fff"><use xlink:href="#ai"/></mask><path d="M-6.047-4.942h64.32v32.91h-64.32v-32.91z" fill="#E4E5EB" mask="url(#aj)"/></g><g transform="translate(140 113)"><mask id="al" fill="#fff"><use xlink:href="#ak"/></mask><path d="M-4.45-4.968h22.067V17.73H-4.45V-4.968z" fill="#E4E5EB" mask="url(#al)"/></g></g><g transform="translate(155 144)"><mask id="an" fill="#fff"><use xlink:href="#am"/></mask><path d="M-5-5h30v30H-5V-5z" fill="#6DB0EA" mask="url(#an)"/></g><g transform="translate(165 149)"><mask id="ap" fill="#fff"><use xlink:href="#ao"/></mask><path d="M-4.978-4.286h10v18.334h-10V-4.286z" fill="#FCFEFF" mask="url(#ap)"/></g><path d="M165.022 158.048v-8.334" stroke="#FCFEFF" stroke-width="1.5" stroke-linecap="round" stroke-linejoin="round"/><g transform="translate(161 149)"><mask id="ar" fill="#fff"><use xlink:href="#aq"/></mask><path d="M-4.57-4.286H9.02v14.762H-4.57V-4.286z" fill="#FCFEFF" mask="url(#ar)"/></g><path d="M161.43 154.476l3.592-4.762" stroke="#FCFEFF" stroke-width="1.5" stroke-linecap="round" stroke-linejoin="round"/><g transform="translate(165 149)"><mask id="at" fill="#fff"><use xlink:href="#as"/></mask><path d="M-4.978-4.286H8.616v14.762H-4.978V-4.286z" fill="#FCFEFF" mask="url(#at)"/></g><path d="M168.616 154.476l-3.594-4.762" stroke="#FCFEFF" stroke-width="1.5" stroke-linecap="round" stroke-linejoin="round"/><g transform="translate(185 117)"><mask id="av" fill="#fff"><use xlink:href="#au"/></mask><path d="M-5-5h65v16H-5V-5z" fill="#E4E5EB" mask="url(#av)"/></g><g transform="translate(185 105)"><mask id="ax" fill="#fff"><use xlink:href="#aw"/></mask><path d="M-5-5h143v16H-5V-5z" fill="#E4E5EB" mask="url(#ax)"/></g><g transform="translate(106 214)"><mask id="az" fill="#fff"><use xlink:href="#ay"/></mask><path d="M0 4.002A3.996 3.996 0 0 1 3.993 0h177.014A3.996 3.996 0 0 1 185 4.002v37.996A3.996 3.996 0 0 1 181.007 46H3.993A3.996 3.996 0 0 1 0 41.998V4.002z" fill="#FFF" mask="url(#az)"/></g><g transform="translate(106 214)"><mask id="aB" fill="#fff"><use xlink:href="#aA"/></mask><path d="M0 4.002A3.996 3.996 0 0 1 3.993 0h177.014A3.996 3.996 0 0 1 185 4.002v37.996A3.996 3.996 0 0 1 181.007 46H3.993A3.996 3.996 0 0 1 0 41.998V4.002z" stroke="#8F98BA" stroke-width="3" stroke-linecap="round" stroke-linejoin="round" mask="url(#aB)"/></g><g transform="translate(158 228)"><mask id="aD" fill="#fff"><use xlink:href="#aC"/></mask><path d="M-5-5h129v16H-5V-5z" fill="#E4E5EB" mask="url(#aD)"/></g><g transform="translate(158 240)"><mask id="aF" fill="#fff"><use xlink:href="#aE"/></mask><path d="M-5-5h59v16H-5V-5z" fill="#E4E5EB" mask="url(#aF)"/></g><g transform="translate(121 225)"><mask id="aH" fill="#fff"><use xlink:href="#aG"/></mask><path d="M-4.586-4.587h37.46v32.51h-37.46v-32.51z" fill="#A7E7BF" mask="url(#aH)"/></g><g stroke-linecap="round" stroke-linejoin="round"><path d="M130.192 239.85l-4.243-4.244a.995.995 0 0 0-1.408-.006l-2.84 2.842a1 1 0 0 0 .004 1.406l7.78 7.78a.99.99 0 0 0 1.408.004l17.688-17.687a.993.993 0 0 0 .002-1.403l-2.842-2.84a.997.997 0 0 0-1.402 0l-14.148 14.147z" stroke="#79D49A"/><path d="M198.102 205.02V200M299 236.75h4.905M93 237.125h4.905M297.817 208.457l1.548-1.64M100.817 206.817l1.548 1.64M145 203l.52 2.194M256 203l-.52 2.194" stroke="#A7E7BF" stroke-width=".5"/></g></g></svg>